<svg xmlns="http://www.w3.org/2000/svg" width="249" height="83.312"><defs><style>.a{fill:#243746}</style></defs><path class="a" d="M28.89 21.513A8.257 8.257 0 0 1 20.8 29.9a8.257 8.257 0 0 1-8.11-8.387 8.257 8.257 0 0 1 8.109-8.368 8.239 8.239 0 0 1 8.09 8.368Z"/><path d="M.58 13.7a25.753 25.753 0 0 1 3.573-7.61 18.754 18.754 0 0 0 1.74 12.793 39.73 39.73 0 0 0 4.388 6.683c3.147 3.7 10.349 9 13.5 11.645l8.5 6.813s9.942 7.609 12.608 16.237a21.439 21.439 0 0 1 0 10.22 21.569 21.569 0 0 1-3.943 7.646 17.273 17.273 0 0 0-1.314-12.719 42.044 42.044 0 0 0-4.462-6.961 83.627 83.627 0 0 0-10.47-9.165l-2.962-2.259-1.5-1.092c-2.3-1.648-6.813-5.276-6.813-5.276S3.375 32.546.709 23.993A21.42 21.42 0 0 1 .58 13.7Z" transform="translate(-.015 5.185)" style="fill:#eb0045"/><path class="a" d="M37.777 18.2a16.366 16.366 0 0 0 .778-5.239c0-2.629-.685-3.962-3.2-6.387s-2.354-2.112-3.132-3.408A7.128 7.128 0 0 1 31.541 0a8.479 8.479 0 0 0-1.41 4.665 6.517 6.517 0 0 0 2.888 4.962 17.625 17.625 0 0 1 3.522 3.462 10.756 10.756 0 0 1 1.236 5.111Z"/><path class="a" d="M39.388 13.145s.37 5.369-3.943 12.774c-4.018 6.98-14.478 13.053-14.478 13.053l6.646 5.462a43.729 43.729 0 0 0 11.109-12.257 22.216 22.216 0 0 0 2.777-10.793 20.846 20.846 0 0 0-2.111-8.239ZM19.467 51.672l-6.647-5.147a22.217 22.217 0 0 0-4.554 8.109 23.92 23.92 0 0 0-.944 7.405 32.51 32.51 0 0 0 1.648 8.756 11.219 11.219 0 0 1 .477-4.757 28.067 28.067 0 0 1 2.462-5.554 55.726 55.726 0 0 1 7.554-8.813Z"/><path class="a" d="M17.356 83.311a17.662 17.662 0 0 0 1.037-6.11 8.368 8.368 0 0 0-3.11-6.165c-2.351-2.351-3.11-3.184-3.462-4.3a11.108 11.108 0 0 1-.537-2.981s-3.055 5.795-.8 9.553a37.676 37.676 0 0 0 4.74 6.295 16 16 0 0 1 2.132 3.708ZM80.948 46.655c0 5.425-4.425 8.961-9.886 8.961H58.198V24.994h11.978c5.35 0 9.683 3.444 9.683 8.738a7.683 7.683 0 0 1-2.684 6 7.924 7.924 0 0 1 3.773 6.923ZM65.196 31.474v5.554h4.98a2.722 2.722 0 0 0 0-5.425Zm8.831 14.644a2.777 2.777 0 0 0-2.888-2.924h-5.943v5.869h5.869a2.777 2.777 0 0 0 2.962-2.944ZM94.096 24.994v30.548h-7V24.994ZM100.113 40.305a15.811 15.811 0 1 1 4.637 11.3 15.94 15.94 0 0 1-4.637-11.3Zm24.864 0a8.924 8.924 0 1 0-8.924 8.924 8.924 8.924 0 0 0 8.924-8.924ZM160.359 35.492a10.534 10.534 0 0 1-10.74 10.5h-4.592v9.553h-7V24.992h11.592a10.516 10.516 0 0 1 10.74 10.5Zm-7.017 0a3.7 3.7 0 0 0-3.7-3.943h-4.61v7.887h4.587a3.7 3.7 0 0 0 3.721-3.944ZM180.5 50.802h-11.369l-1.537 4.74h-7.663l10.368-30.548h8.924l10.478 30.548h-7.665Zm-2.092-6.554-3.592-11.254-3.592 11.254ZM204.512 45.543h-3.331v10h-7v-30.55h12.256a10.46 10.46 0 0 1 10.5 10.5 10.127 10.127 0 0 1-5.554 8.887l6.443 11.164h-7.535Zm-3.332-6.11h5.258a3.7 3.7 0 0 0 3.5-3.943 3.7 3.7 0 0 0-3.5-4.017h-5.257ZM240.317 55.542l-7.072-12.423-2.573 2.962v9.461h-7.406v-30.4h7.405v10.793l8.831-10.793h9.146l-10.386 12.33L249 55.615Z"/></svg>