<svg xmlns="http://www.w3.org/2000/svg" viewBox="0 0 500 500"><path d="M86.59 260.6c-90.24 52.1-90.24 136.57 0 188.68s236.56 52.1 326.81 0 90.24-136.58 0-188.68-236.56-52.11-326.81 0Z" style="fill:#fafafa"/><ellipse cx="234.13" cy="413.81" rx="52.25" ry="30.16" style="fill:#e0e0e0"/><ellipse cx="420.25" cy="408.06" rx="52.25" ry="30.16" style="fill:#e0e0e0"/><path d="M97.57 419.06c9.78 5.71 9.78 15 0 20.68s-25.64 5.71-35.42 0-9.78-15 0-20.68 25.64-5.71 35.42 0Z" style="fill:#e0e0e0"/><path d="m51.17 134.69 47.23-27.27-.77-6.8c-.49-4.31-2.21-7.31-4.68-8.74l-6.57-3.79c-2.45-1.41-5.65-1.26-9.11.74L59.16 99.28c-6.94 4-12.81 14.21-13.79 23.92l-.77 7.7Z" style="fill:#ff8a00"/><path d="m51.17 134.69 47.23-27.27-.77-6.8c-.49-4.31-2.21-7.31-4.68-8.74l-6.57-3.79c-2.45-1.41-5.65-1.26-9.11.74L59.16 99.28c-6.94 4-12.81 14.21-13.79 23.92l-.77 7.7Z" style="fill:#fff;opacity:.2"/><path d="M97.63 100.62c-.49-4.31-2.21-7.31-4.68-8.74s-5.65-1.26-9.11.74l-18.11 10.45c-6.94 4-12.82 14.21-13.79 23.93l-.77 7.69 47.23-27.27Z" style="fill:#ff8a00"/><g style="opacity:.5"><path d="M97.63 100.62c-.49-4.31-2.21-7.31-4.68-8.74s-5.65-1.26-9.11.74l-18.11 10.45c-6.94 4-12.82 14.21-13.79 23.93l-.77 7.69 47.23-27.27Z" style="fill:#fff"/></g><path d="M85 62.94c2.32 1.35 3.76 4.23 3.76 8.33 0 8.19-5.75 18.16-12.85 22.26-3.55 2-6.76 2.24-9.09.9l-6.44-3.73c-2.33-1.34-3.77-4.22-3.77-8.32 0-8.2 5.76-18.16 12.86-22.26 3.54-2 6.76-2.24 9.08-.9Z" style="fill:#ff8a00"/><path d="M85 62.94c2.32 1.35 3.76 4.23 3.76 8.33 0 8.19-5.75 18.16-12.85 22.26-3.55 2-6.76 2.24-9.09.9l-6.44-3.73c-2.33-1.34-3.77-4.22-3.77-8.32 0-8.2 5.76-18.16 12.86-22.26 3.54-2 6.76-2.24 9.08-.9Z" style="fill:#fff;opacity:.2"/><path d="M75.92 93.53c-3.55 2-6.76 2.24-9.09.9s-3.76-4.23-3.76-8.32c0-8.2 5.75-18.17 12.85-22.27 3.55-2 6.76-2.24 9.09-.9s3.76 4.23 3.76 8.33c0 8.19-5.77 18.16-12.85 22.26Z" style="fill:#ff8a00"/><path d="M75.92 93.53c-3.55 2-6.76 2.24-9.09.9s-3.76-4.23-3.76-8.32c0-8.2 5.75-18.17 12.85-22.27 3.55-2 6.76-2.24 9.09-.9s3.76 4.23 3.76 8.33c0 8.19-5.77 18.16-12.85 22.26Z" style="fill:#fff;opacity:.5"/><path d="M116.5 98.23a.93.93 0 0 1-.29 0l-2.93-.74a1.65 1.65 0 0 1-1.14-2.25l2.16-5.34a1.3 1.3 0 0 0-.28-1.18 8.2 8.2 0 0 1-.8-1 .5.5 0 0 0-.66-.2l-4 2.46a1.44 1.44 0 0 1-1.38.13 1.42 1.42 0 0 1-.77-1.14l-.61-4.29a3 3 0 0 1 .93-2.5l4-3.48a3 3 0 0 0 .8-1.51 24.46 24.46 0 0 1 .59-2.9.77.77 0 0 0-.38-.84l-2.26-1a1.8 1.8 0 0 1-1-1 1.84 1.84 0 0 1 .08-1.4l2.84-5.9a2.47 2.47 0 0 1 2.31-1.33l2.84.23a1.62 1.62 0 0 0 1.23-.59A34.59 34.59 0 0 1 120 59.6a2.61 2.61 0 0 0 .58-1.55l-.13-4.21a3.11 3.11 0 0 1 1.16-2.4l4.52-3.34a1.48 1.48 0 0 1 1.36-.25 1.45 1.45 0 0 1 .9 1l.9 3.34a.35.35 0 0 0 .17.22.4.4 0 0 0 .34 0 16.46 16.46 0 0 1 1.91-.57A2.22 2.22 0 0 0 133 51l3-5.2a2.27 2.27 0 0 1 2.43-1l2.93.75a1.65 1.65 0 0 1 1.14 2.25l-2.16 5.33a1.29 1.29 0 0 0 .29 1.19 8.24 8.24 0 0 1 .79 1 .48.48 0 0 0 .66.2l4-2.46a1.37 1.37 0 0 1 2.16 1l.6 4.28a3 3 0 0 1-.93 2.5l-4 3.48a2.94 2.94 0 0 0-.79 1.51 28.87 28.87 0 0 1-.59 2.91.76.76 0 0 0 .37.84l2.27 1a1.8 1.8 0 0 1 .94 1 1.77 1.77 0 0 1-.08 1.39L143.11 79a2.47 2.47 0 0 1-2.31 1.33l-2.8-.27a1.61 1.61 0 0 0-1.24.58 34.59 34.59 0 0 1-2.17 2.7 2.61 2.61 0 0 0-.58 1.55l.14 4.21a3.15 3.15 0 0 1-1.15 2.41l-4.51 3.33a1.46 1.46 0 0 1-1.36.26 1.5 1.5 0 0 1-.91-1l-.9-3.33a.32.32 0 0 0-.17-.23.38.38 0 0 0-.33 0 14.84 14.84 0 0 1-1.92.57 2.3 2.3 0 0 0-1.28.89l-2.93 5.19a2.28 2.28 0 0 1-2.19 1.04ZM113 86.05a1.87 1.87 0 0 1 1.37.86 8.49 8.49 0 0 0 .67.88 2.62 2.62 0 0 1 .53 2.56l-2.16 5.33a.39.39 0 0 0 0 .3.31.31 0 0 0 .24.17l2.93.75a.93.93 0 0 0 .95-.41l2.93-5.19a3.51 3.51 0 0 1 2.14-1.53 13.8 13.8 0 0 0 1.75-.52 1.71 1.71 0 0 1 1.4.06 1.66 1.66 0 0 1 .84 1.07l.9 3.33a.27.27 0 0 0 .07.14.37.37 0 0 0 .13-.07l4.52-3.34a1.79 1.79 0 0 0 .62-1.29l-.14-4.21a4 4 0 0 1 .92-2.47c.72-.82 1.43-1.69 2.09-2.61a3 3 0 0 1 2.41-1.13l2.83.23a1.18 1.18 0 0 0 1-.58l2.84-5.9a.44.44 0 0 0 0-.37.49.49 0 0 0-.25-.28l-2.26-1a2.1 2.1 0 0 1-1.11-2.37 23.93 23.93 0 0 0 .57-2.77 4.24 4.24 0 0 1 1.27-2.36l4-3.48a1.69 1.69 0 0 0 .49-1.31l-.6-4.29a.25.25 0 0 0 0-.12.27.27 0 0 0-.11 0l-4 2.46a1.8 1.8 0 0 1-2.46-.6 6.58 6.58 0 0 0-.67-.88 2.61 2.61 0 0 1-.52-2.57l2.15-5.33a.36.36 0 0 0 0-.29.33.33 0 0 0-.24-.18l-2.97-.74a1 1 0 0 0-1 .41l-2.92 5.2a3.6 3.6 0 0 1-2.15 1.57 11.84 11.84 0 0 0-1.74.52 1.77 1.77 0 0 1-1.41-.07 1.67 1.67 0 0 1-.84-1.06l-.9-3.34c0-.09-.05-.13-.06-.13a.35.35 0 0 0-.14.06l-4.51 3.34a1.82 1.82 0 0 0-.63 1.3L122 58a4 4 0 0 1-.92 2.47c-.72.81-1.42 1.69-2.09 2.6a2.92 2.92 0 0 1-2.41 1.13l-2.88-.2a1.15 1.15 0 0 0-1 .57l-2.85 5.91a.48.48 0 0 0 0 .37.44.44 0 0 0 .25.27l2.26 1a2.09 2.09 0 0 1 1.11 2.37 22.29 22.29 0 0 0-.56 2.77 4.22 4.22 0 0 1-1.24 2.31l-4 3.48a1.74 1.74 0 0 0-.49 1.32l.61 4.28a.49.49 0 0 0 0 .13l.11-.06 4-2.45a1.79 1.79 0 0 1 1.1-.22Zm9.65-2.69a5.21 5.21 0 0 1-1.53-.38 5.81 5.81 0 0 1-3.3-4.86c-.75-5.26 2.77-12.58 7.83-16.33 2.82-2.08 5.71-2.75 7.91-1.82a5.79 5.79 0 0 1 3.3 4.86c.75 5.25-2.77 12.58-7.83 16.32a9.6 9.6 0 0 1-6.42 2.21Zm9.24-22.46a8.33 8.33 0 0 0-5.45 2c-4.72 3.48-8 10.25-7.31 15.07a4.49 4.49 0 0 0 2.5 3.83c1.77.74 4.17.13 6.61-1.67 4.72-3.49 8-10.25 7.31-15.08a4.48 4.48 0 0 0-2.5-3.82 3.73 3.73 0 0 0-1.2-.33ZM157.6 74.51h-.2l-1.94-.51a1.24 1.24 0 0 1-.8-.63 1.19 1.19 0 0 1 0-1l1.43-3.54a.77.77 0 0 0-.17-.68 5.62 5.62 0 0 1-.54-.7c0-.07-.17-.18-.29-.1L152.41 69a1 1 0 0 1-1 .09 1.06 1.06 0 0 1-.58-.83l-.4-2.85a2.09 2.09 0 0 1 .66-1.75l2.66-2.32a1.84 1.84 0 0 0 .5-.93 18.17 18.17 0 0 1 .39-2 .4.4 0 0 0-.19-.43l-1.51-.69a1.34 1.34 0 0 1-.68-.74 1.31 1.31 0 0 1 .06-1l1.89-3.92a1.74 1.74 0 0 1 1.63-.94l1.88.15a1 1 0 0 0 .73-.35c.46-.63.95-1.23 1.45-1.8a1.65 1.65 0 0 0 .36-1l-.09-2.79a2.2 2.2 0 0 1 .81-1.69L164 41a1 1 0 0 1 1.67.58l.6 2.21c.09.11.14.11.2.09a9.77 9.77 0 0 1 1.28-.39 1.35 1.35 0 0 0 .78-.54l1.95-3.45a1.59 1.59 0 0 1 1.73-.74l1.95.5a1.21 1.21 0 0 1 .79.62 1.19 1.19 0 0 1 0 1l-1.43 3.54a.77.77 0 0 0 .17.68 7.63 7.63 0 0 1 .54.7.21.21 0 0 0 .29.1l2.65-1.63a1 1 0 0 1 1.59.75l.4 2.85a2.1 2.1 0 0 1-.66 1.75L175.84 52a1.87 1.87 0 0 0-.5.94 18 18 0 0 1-.39 1.94.4.4 0 0 0 .19.43l1.51.7a1.3 1.3 0 0 1 .68.74 1.27 1.27 0 0 1-.06 1l-1.89 3.92a1.75 1.75 0 0 1-1.63.94l-1.88-.15a1 1 0 0 0-.73.34c-.46.63-.95 1.24-1.45 1.81a1.62 1.62 0 0 0-.36 1l.09 2.8a2.19 2.19 0 0 1-.81 1.68l-3 2.22a1.09 1.09 0 0 1-1 .18 1.06 1.06 0 0 1-.67-.76l-.6-2.22c-.1-.11-.15-.1-.2-.08a9.26 9.26 0 0 1-1.28.38 1.4 1.4 0 0 0-.78.54l-2 3.45a1.62 1.62 0 0 1-1.48.71Zm-2.33-8.3a1.33 1.33 0 0 1 1 .62 6.17 6.17 0 0 0 .44.57 1.84 1.84 0 0 1 .37 1.81l-1.43 3.54.08.17 1.95.5a.52.52 0 0 0 .51-.22l1.95-3.45a2.45 2.45 0 0 1 1.49-1.07 8.64 8.64 0 0 0 1.14-.34 1.25 1.25 0 0 1 1 0 1.22 1.22 0 0 1 .61.77l.6 2.21 3-2.22a1.11 1.11 0 0 0 .37-.78l-.09-2.79a2.77 2.77 0 0 1 .64-1.72c.48-.54.94-1.12 1.38-1.72a2 2 0 0 1 1.69-.79l1.88.15a.65.65 0 0 0 .57-.32l1.89-3.93a.16.16 0 0 0 0-.16.2.2 0 0 0-.11-.12l-1.5-.7a1.48 1.48 0 0 1-.79-1.69 18.55 18.55 0 0 0 .37-1.83 2.94 2.94 0 0 1 .85-1.6l2.67-2.31a1 1 0 0 0 .29-.78l-.4-2.85-2.59 1.66a1.29 1.29 0 0 1-1.77-.43 4.3 4.3 0 0 0-.44-.57 1.84 1.84 0 0 1-.37-1.81l1.43-3.55.05-.13h-.13l-2-.49a.48.48 0 0 0-.51.22l-2 3.45a2.43 2.43 0 0 1-1.36 1.07 9.34 9.34 0 0 0-1.15.35 1.26 1.26 0 0 1-1 0 1.22 1.22 0 0 1-.61-.77l-.6-2.22-3 2.23a1.09 1.09 0 0 0-.37.77l.09 2.8a2.77 2.77 0 0 1-.63 1.71 21.29 21.29 0 0 0-1.39 1.72 2 2 0 0 1-1.69.79l-1.88-.15a.7.7 0 0 0-.57.33L153.29 56a.21.21 0 0 0 0 .17.2.2 0 0 0 .11.12l1.5.69a1.51 1.51 0 0 1 .8 1.7 16 16 0 0 0-.38 1.82 2.87 2.87 0 0 1-.85 1.61l-2.67 2.31a1 1 0 0 0-.29.78l.4 2.85 2.59-1.66a1.17 1.17 0 0 1 .77-.18Zm6.4-1.58a3.37 3.37 0 0 1-1-.26 4 4 0 0 1-2.26-3.31c-.5-3.53 1.86-8.43 5.25-10.94 1.9-1.41 3.85-1.86 5.35-1.23a4 4 0 0 1 2.26 3.31c.5 3.53-1.85 8.44-5.24 10.94a6.45 6.45 0 0 1-4.36 1.49Zm6.13-14.92a5.47 5.47 0 0 0-3.55 1.29c-3.1 2.29-5.26 6.73-4.81 9.91a2.9 2.9 0 0 0 1.6 2.46c1.13.48 2.7.07 4.29-1.1 3.1-2.29 5.26-6.74 4.81-9.91a2.88 2.88 0 0 0-1.6-2.46 2.6 2.6 0 0 0-.74-.19Z" style="fill:#e0e0e0"/><path d="M274.8 57.89a1.79 1.79 0 0 1 .81-1.41l41.61-24a1.78 1.78 0 0 1 1.62 0l.92.53a1.79 1.79 0 0 1 .81 1.41v31.87a1.79 1.79 0 0 1-.81 1.41l-41.61 24a1.78 1.78 0 0 1-1.62 0l-.92-.53a1.79 1.79 0 0 1-.81-1.41Z" style="fill:#ff8a00"/><path d="M274.8 57.89a1.79 1.79 0 0 1 .81-1.41l41.61-24a1.78 1.78 0 0 1 1.62 0l.92.53a1.79 1.79 0 0 1 .81 1.41v31.87a1.79 1.79 0 0 1-.81 1.41l-41.61 24a1.78 1.78 0 0 1-1.62 0l-.92-.53a1.79 1.79 0 0 1-.81-1.41Z" style="fill:#fff;opacity:.8"/><path d="M278.61 59.15 275 57.09a1.61 1.61 0 0 0-.24.8v31.89a1.79 1.79 0 0 0 .81 1.41l.92.53a1.78 1.78 0 0 0 1.62 0l.46-.27Z" style="fill:#ff8a00"/><path d="M278.61 59.15 275 57.09a1.61 1.61 0 0 0-.24.8v31.89a1.79 1.79 0 0 0 .81 1.41l.92.53a1.78 1.78 0 0 0 1.62 0l.46-.27Z" style="fill:#fff;opacity:.30000000000000004"/><path d="M320.57 34.4v31.89a1.6 1.6 0 0 1-.25.82 1.68 1.68 0 0 1-.48.54h-.05l-41.6 24a.56.56 0 0 1-.55.06.55.55 0 0 1-.26-.53V59.36a.71.71 0 0 1 .92-.72l17.49 4.16 2.29.54a1.49 1.49 0 0 0 1.46-.55l2.66-3.69L320 34.22c.33-.42.57-.34.57.18Z" style="fill:#ff8a00"/><path d="M320.57 34.4v31.89a1.6 1.6 0 0 1-.25.82 1.68 1.68 0 0 1-.48.54h-.05l-41.6 24a.56.56 0 0 1-.55.06.55.55 0 0 1-.26-.53V59.36a.71.71 0 0 1 .92-.72l17.49 4.16 2.29.54a1.49 1.49 0 0 0 1.46-.55l2.66-3.69L320 34.22c.33-.42.57-.34.57.18Z" style="fill:#fff;opacity:.5"/><path d="M319.76 67.7h.05a1.68 1.68 0 0 0 .48-.54 1.63 1.63 0 0 0 .25-.81l-18.41-7.2 12.33 11.64Z" style="fill:#ff8a00"/><path d="M319.76 67.7h.05a1.68 1.68 0 0 0 .48-.54 1.63 1.63 0 0 0 .25-.81l-18.41-7.2 12.33 11.64ZM277.34 91.25a.55.55 0 0 0 .26.53.56.56 0 0 0 .55-.06l14.32-8.27 3.27-20.65-18.4 27.92Z" style="fill:#ff8a00"/><path d="M277.34 91.25a.55.55 0 0 0 .26.53.56.56 0 0 0 .55-.06l14.32-8.27 3.27-20.65-18.4 27.92Z" style="fill:#ff8a00"/><path d="M320.32 67.11a1.68 1.68 0 0 1-.48.54l-41.68 24.07a.56.56 0 0 1-.55.06L297.52 60a3.12 3.12 0 0 1 3.91-1.2Z" style="fill:#ff8a00"/><path d="M320.32 67.11a1.68 1.68 0 0 1-.48.54l-41.68 24.07a.56.56 0 0 1-.55.06L297.52 60a3.12 3.12 0 0 1 3.91-1.2Z" style="fill:#fff;opacity:.5"/><path d="m277.68 58.6 18.93 8.4a3.1 3.1 0 0 0 3.88-1.19L320.36 34Z" style="fill:#ff8a00"/><path d="m277.68 58.6 19.06 7.12a3.11 3.11 0 0 0 3.68-1.21L320.36 34Z" style="fill:#ff8a00"/><path d="m277.68 58.6 19.06 7.12a3.11 3.11 0 0 0 3.68-1.21L320.36 34Z" style="fill:#fff;opacity:.5"/><path d="M254.53 42.88a1.54 1.54 0 0 0-.05-.31.06.06 0 0 0 0-.07.94.94 0 0 0-.08-.31 1.35 1.35 0 0 0-.2-.44.72.72 0 0 0-.11-.19s-.06-.09-.11-.12a1 1 0 0 0-.22-.23 1.22 1.22 0 0 0-.29-.17 2.5 2.5 0 0 0-2.33.29L51.18 156.44c-1.91 1.1-3.47 3.79-3.47 7.65v194.17a2.35 2.35 0 0 0 1.29 2.08l.15.1.18.1a1 1 0 0 0 .29.1 1.74 1.74 0 0 0 .45.06 2.23 2.23 0 0 0 1.15-.33l.09-.05 3.31-1.91 196.47-113.22a7.65 7.65 0 0 0 3.47-6V43.32c0-.15-.02-.32-.03-.44Z" style="fill:#fafafa"/><path d="M252.63 41.84a.73.73 0 0 1 .38.09h.13l.09.12.07.11a.37.37 0 0 1 .07.14l.09.28v.06a.38.38 0 0 1 0 .1v196.45a6.67 6.67 0 0 1-3 5.14L54.08 357.55l-3.21 1.85h-.09l-.09.05a1.29 1.29 0 0 1-.65.2.79.79 0 0 1-.23 0 .1.1 0 0 1-.07 0h-.09l-.13-.09a1.36 1.36 0 0 1-.73-1.21V164.09c0-3.74 1.53-6 3-6.79L251.58 42.18a2.25 2.25 0 0 1 1-.34m0-1a3.17 3.17 0 0 0-1.54.46L51.18 156.44c-1.91 1.1-3.47 3.79-3.47 7.65v194.17a2.35 2.35 0 0 0 1.29 2.08l.15.1.18.1a1 1 0 0 0 .29.1 1.74 1.74 0 0 0 .45.06 2.23 2.23 0 0 0 1.1-.33l.09-.05 3.31-1.91 196.52-113.22a7.65 7.65 0 0 0 3.47-6V42.88a1.54 1.54 0 0 0-.05-.31.06.06 0 0 0 0-.07.94.94 0 0 0-.08-.31 1.35 1.35 0 0 0-.2-.44.72.72 0 0 0-.11-.19s-.06-.09-.11-.12a1 1 0 0 0-.22-.23 1.22 1.22 0 0 0-.29-.17 1.9 1.9 0 0 0-.79-.17Z" style="fill:#e0e0e0"/><path d="M253.42 41a2.5 2.5 0 0 0-2.33.29L51.18 156.44a7.66 7.66 0 0 0-3.47 6v6.72l-4.43-2.59v-6.64a7.67 7.67 0 0 1 3.46-6L246.66 38.81a2.41 2.41 0 0 1 2.52-.2c.62.39 3.5 2.02 4.24 2.39Z" style="fill:#f0f0f0"/><path d="M254.55 43.29c0-2.19-1.56-3.07-3.46-2L51.17 156.44a7.65 7.65 0 0 0-3.46 6v6.72l206.84-119.1Z" style="fill:#fafafa"/><path d="M252.63 41.79c.84 0 1 .94 1 1.5v6.22l-204.94 118v-5.09a6.72 6.72 0 0 1 3-5.18l199.87-115.1a2.2 2.2 0 0 1 1.07-.35m0-.94a3.12 3.12 0 0 0-1.54.47L51.17 156.44a7.65 7.65 0 0 0-3.46 6v6.72l206.84-119.1v-6.77c0-1.55-.79-2.44-1.92-2.44Z" style="fill:#e0e0e0"/><path d="M43.28 166.58v-6.66a7.07 7.07 0 0 1 1.06-3.46l4.41 2.54a6.94 6.94 0 0 0-1 3.44v6.72ZM239.5 51.42a3.53 3.53 0 0 0-1.5 2.81c0 1.08.66 1.58 1.47 1.11a3.51 3.51 0 0 0 1.53-2.81c0-1.08-.68-1.53-1.5-1.11ZM244.8 48.36a3.52 3.52 0 0 0-1.47 2.81c0 1.08.66 1.58 1.47 1.11a3.53 3.53 0 0 0 1.47-2.81c0-1.08-.66-1.58-1.47-1.11ZM250.09 45.3a3.52 3.52 0 0 0-1.47 2.81c0 1.08.66 1.58 1.47 1.11a3.53 3.53 0 0 0 1.47-2.81c0-1.08-.66-1.58-1.47-1.11Z" style="fill:#e0e0e0"/><path d="m49 360.35-.18-.1-3.65-2.11a3.67 3.67 0 0 1-1.81-2.68 4.36 4.36 0 0 1 0-.51V166.57l4.43 2.59v189.09a2.26 2.26 0 0 0 1.07 2l.12.08Z" style="fill:#f0f0f0"/><path d="M69.63 167.29a.2.2 0 0 1 .27 0 .45.45 0 0 1 .12.35v8.8a12.64 12.64 0 0 1-.32 2.88 10.56 10.56 0 0 1-.9 2.48 8.66 8.66 0 0 1-1.38 2 7.42 7.42 0 0 1-1.76 1.43 4.15 4.15 0 0 1-1.78.61 1.87 1.87 0 0 1-1.37-.4 3 3 0 0 1-.89-1.45 8.42 8.42 0 0 1-.32-2.51v-8.81a1.07 1.07 0 0 1 .12-.48.64.64 0 0 1 .27-.34l1.88-1.08a.2.2 0 0 1 .27 0 .45.45 0 0 1 .11.35v8.72a2.89 2.89 0 0 0 .43 1.83c.28.33.71.34 1.28 0a3 3 0 0 0 1.28-1.5 5.88 5.88 0 0 0 .43-2.31v-8.72a1.05 1.05 0 0 1 .11-.48.75.75 0 0 1 .27-.34ZM75.65 163.59a3.74 3.74 0 0 1 1.68-.56 2.38 2.38 0 0 1 1.33.28 2.19 2.19 0 0 1 .87.91 2.81 2.81 0 0 1 .33 1.29.92.92 0 0 1-.09.39.61.61 0 0 1-.21.27l-1.88 1.08a.53.53 0 0 1-.32.1.63.63 0 0 1-.25-.12l-.14-.15a.72.72 0 0 0-.26-.16.85.85 0 0 0-.43 0 1.8 1.8 0 0 0-.63.24 4.8 4.8 0 0 0-.52.36 3.07 3.07 0 0 0-.45.43 2 2 0 0 0-.31.53 1.59 1.59 0 0 0-.12.62.66.66 0 0 0 .13.47.6.6 0 0 0 .46.14 3.48 3.48 0 0 0 .85-.12c.36-.09.8-.2 1.32-.35a4.25 4.25 0 0 1 1.38-.17 1.61 1.61 0 0 1 1 .37 2 2 0 0 1 .59 1 6.1 6.1 0 0 1 .19 1.69 7.47 7.47 0 0 1-.33 2.2 9.12 9.12 0 0 1-.92 2 9.3 9.3 0 0 1-1.41 1.77 8.52 8.52 0 0 1-1.77 1.36 4.5 4.5 0 0 1-1.78.63 2.46 2.46 0 0 1-1.38-.25 2.2 2.2 0 0 1-.91-.95 3.17 3.17 0 0 1-.34-1.45 1 1 0 0 1 .09-.4.52.52 0 0 1 .21-.26l1.87-1.08a.57.57 0 0 1 .32-.11.46.46 0 0 1 .23.1 1.92 1.92 0 0 1 .17.19 1.09 1.09 0 0 0 .31.23 1 1 0 0 0 .49.08 1.81 1.81 0 0 0 .72-.26 5.43 5.43 0 0 0 1.27-1 1.73 1.73 0 0 0 .51-1.21.46.46 0 0 0-.19-.44.9.9 0 0 0-.56-.09 5.08 5.08 0 0 0-1 .19l-1.37.35a2.08 2.08 0 0 1-2.16-.38 4 4 0 0 1-.68-2.64 7.74 7.74 0 0 1 .28-2 9.45 9.45 0 0 1 .81-2A9 9 0 0 1 74 165a7 7 0 0 1 1.65-1.41ZM88.76 168.16a.21.21 0 0 1 .28 0 .49.49 0 0 1 .11.35v2.34a1.2 1.2 0 0 1-.11.48.7.7 0 0 1-.28.34L82 175.61a.21.21 0 0 1-.27 0 .45.45 0 0 1-.12-.35V161a1.07 1.07 0 0 1 .12-.48.68.68 0 0 1 .27-.34l6.68-3.85a.2.2 0 0 1 .27 0 .45.45 0 0 1 .12.35V159a1.07 1.07 0 0 1-.12.48.75.75 0 0 1-.27.34l-4.42 2.55v2.38l4.1-2.37a.22.22 0 0 1 .28 0 .51.51 0 0 1 .11.35v2.34a1.21 1.21 0 0 1-.11.49.72.72 0 0 1-.28.33l-4.1 2.37v2.47ZM95.07 152.6a5.18 5.18 0 0 1 1.69-.67 1.83 1.83 0 0 1 1.27.2 2 2 0 0 1 .8 1.11 6.33 6.33 0 0 1 .28 2.08 9.74 9.74 0 0 1-.44 3 8.07 8.07 0 0 1-1.26 2.4l1.77 4.22a.63.63 0 0 1 0 .22 1 1 0 0 1-.1.4.56.56 0 0 1-.22.27L97 167c-.19.11-.33.13-.41 0a1.07 1.07 0 0 1-.19-.28l-1.59-3.81-1.32.76v4.73a1.2 1.2 0 0 1-.11.48.72.72 0 0 1-.28.33l-1.88 1.09a.21.21 0 0 1-.27 0 .49.49 0 0 1-.11-.35v-14.29a1.2 1.2 0 0 1 .11-.48.81.81 0 0 1 .27-.34Zm-1.62 7.62 1.62-.93a3 3 0 0 0 1-.93 2.59 2.59 0 0 0 .4-1.51c0-.62-.13-1-.4-1a1.24 1.24 0 0 0-1 .22l-1.62.94ZM104.49 146.94a3.74 3.74 0 0 1 1.68-.56 2.49 2.49 0 0 1 1.33.28 2.25 2.25 0 0 1 .87.91 2.81 2.81 0 0 1 .33 1.29.92.92 0 0 1-.09.39.79.79 0 0 1-.21.27l-1.88 1.08a.53.53 0 0 1-.32.1.48.48 0 0 1-.25-.12l-.14-.14a.62.62 0 0 0-.26-.17 1 1 0 0 0-.43 0 1.67 1.67 0 0 0-.63.24 4.93 4.93 0 0 0-.53.36 3.58 3.58 0 0 0-.44.43 2 2 0 0 0-.32.53 1.59 1.59 0 0 0-.12.62.66.66 0 0 0 .14.47.59.59 0 0 0 .46.15 4.3 4.3 0 0 0 .85-.13l1.32-.34a4.49 4.49 0 0 1 1.37-.18 1.61 1.61 0 0 1 1 .37 1.93 1.93 0 0 1 .59 1 5.93 5.93 0 0 1 .2 1.68 7.47 7.47 0 0 1-.33 2.2 8.8 8.8 0 0 1-.93 2 9.48 9.48 0 0 1-1.4 1.77 8.83 8.83 0 0 1-1.77 1.35 4.56 4.56 0 0 1-1.78.63 2.43 2.43 0 0 1-1.38-.25 2.23 2.23 0 0 1-.91-.94 3.24 3.24 0 0 1-.35-1.46.88.88 0 0 1 .1-.4.63.63 0 0 1 .2-.26l1.88-1.08a.55.55 0 0 1 .32-.11.5.5 0 0 1 .23.1l.17.19a1 1 0 0 0 .31.23 1 1 0 0 0 .48.08 1.79 1.79 0 0 0 .73-.26 5.38 5.38 0 0 0 1.27-1 1.76 1.76 0 0 0 .5-1.21.47.47 0 0 0-.18-.44.92.92 0 0 0-.56-.09 4.93 4.93 0 0 0-1 .19c-.39.11-.85.22-1.37.35a2.07 2.07 0 0 1-2.16-.38 3.93 3.93 0 0 1-.68-2.64 7.32 7.32 0 0 1 .28-2 8.67 8.67 0 0 1 .81-2 9 9 0 0 1 1.28-1.79 6.88 6.88 0 0 1 1.72-1.31ZM227.85 87.88h-.08l-.79-.2a.52.52 0 0 1-.32-.26.49.49 0 0 1 0-.41l.58-1.43a.31.31 0 0 0-.07-.27 3 3 0 0 1-.22-.28s-.07-.08-.12 0l-1.07.66a.41.41 0 0 1-.64-.31l-.12-1.2a.87.87 0 0 1 .26-.71l1.08-.93a.7.7 0 0 0 .2-.38 7.72 7.72 0 0 1 .16-.78.16.16 0 0 0-.08-.18l-.61-.28a.57.57 0 0 1-.27-.3.53.53 0 0 1 0-.41l.77-1.58a.69.69 0 0 1 .66-.38l.76.06a.38.38 0 0 0 .29-.14 8.19 8.19 0 0 1 .59-.73.62.62 0 0 0 .14-.38v-1.13a.91.91 0 0 1 .33-.68l1.22-.9a.42.42 0 0 1 .4-.07.41.41 0 0 1 .27.31l.24.89h.08l.52-.15a.58.58 0 0 0 .32-.22l.78-1.39a.64.64 0 0 1 .7-.3l.79.2a.48.48 0 0 1 .32.25.49.49 0 0 1 0 .41l-.58 1.43a.31.31 0 0 0 .07.27 2.21 2.21 0 0 1 .22.29.09.09 0 0 0 .12 0l1.07-.66a.41.41 0 0 1 .41 0 .43.43 0 0 1 .23.34l.16 1.15a.86.86 0 0 1-.26.71l-1.08.93a.78.78 0 0 0-.2.38 7.9 7.9 0 0 1-.16.79.15.15 0 0 0 .08.17l.61.28a.53.53 0 0 1 .25.71l-.86 1.61a.72.72 0 0 1-.67.38l-.76-.06a.38.38 0 0 0-.29.14 8.45 8.45 0 0 1-.58.73.7.7 0 0 0-.15.39v1.13a1 1 0 0 1-.33.68l-1.21.89a.41.41 0 0 1-.68-.23l-.24-.9h-.08a3.39 3.39 0 0 1-.52.15.58.58 0 0 0-.32.22l-.78 1.4a.67.67 0 0 1-.54.28Zm-.94-3.35a.54.54 0 0 1 .4.25 1.3 1.3 0 0 0 .18.23.73.73 0 0 1 .14.73l-.57 1.43v.07l.79.2a.2.2 0 0 0 .2-.09l.79-1.39a1 1 0 0 1 .6-.43c.15 0 .31-.08.47-.14a.49.49 0 0 1 .41 0 .45.45 0 0 1 .24.31l.25.89 1.2-.9a.46.46 0 0 0 .15-.31v-1.13a1.06 1.06 0 0 1 .26-.69 7.72 7.72 0 0 0 .55-.7.86.86 0 0 1 .69-.32l.76.06a.26.26 0 0 0 .23-.13l.76-1.58a.09.09 0 0 0 0-.07l-.61-.28a.61.61 0 0 1-.31-.68c.06-.25.11-.5.15-.74a1.17 1.17 0 0 1 .34-.65l1.08-.93a.47.47 0 0 0 .12-.32L236 76l-1 .67a.52.52 0 0 1-.72-.17 1 1 0 0 0-.18-.23.77.77 0 0 1-.14-.74l.57-1.43h-.05l-.79-.2a.2.2 0 0 0-.2.09l-.79 1.4a1 1 0 0 1-.6.43 3.1 3.1 0 0 0-.47.14.53.53 0 0 1-.41 0 .49.49 0 0 1-.24-.32l-.24-.89-1.21.9a.51.51 0 0 0-.15.31v1.13a1.06 1.06 0 0 1-.26.69c-.19.22-.38.46-.55.7a.84.84 0 0 1-.69.32l-.76-.06a.28.28 0 0 0-.23.13l-.76 1.59v.06a.08.08 0 0 0 .05 0l.61.28a.61.61 0 0 1 .32.69 5.11 5.11 0 0 0-.15.74 1.16 1.16 0 0 1-.35.64l-1.08.94a.45.45 0 0 0-.12.31l.17 1.15 1-.67a.52.52 0 0 1 .33-.07Zm2.58-.64a1.44 1.44 0 0 1-.42-.11 1.57 1.57 0 0 1-.91-1.33 5.31 5.31 0 0 1 2.12-4.45 2.27 2.27 0 0 1 2.16-.5 1.58 1.58 0 0 1 .91 1.34 5.32 5.32 0 0 1-2.12 4.42 2.63 2.63 0 0 1-1.74.63Zm2.48-6a2.16 2.16 0 0 0-1.43.52 4.82 4.82 0 0 0-1.95 4 1.17 1.17 0 0 0 .65 1 1.85 1.85 0 0 0 1.73-.45 4.81 4.81 0 0 0 1.95-4 1.16 1.16 0 0 0-.65-1 1 1 0 0 0-.27-.1ZM209.74 90.2a3.48 3.48 0 0 0-1.47 2.8c0 1.08.65 1.58 1.47 1.11a3.53 3.53 0 0 0 1.47-2.81c0-1.08-.66-1.57-1.47-1.1ZM215 87.13a3.53 3.53 0 0 0-1.47 2.81c0 1.09.66 1.58 1.47 1.12a3.53 3.53 0 0 0 1.47-2.81c.03-1.09-.63-1.58-1.47-1.12ZM220.32 84.07a3.53 3.53 0 0 0-1.47 2.81c0 1.09.66 1.58 1.47 1.11a3.48 3.48 0 0 0 1.47-2.81c0-1.08-.65-1.58-1.47-1.11Z" style="fill:#e0e0e0"/><path d="M83.63 194.83a4.55 4.55 0 0 1 2.28.58c1.68 1 2.61 3.11 2.61 6 0 6.41-4.52 14.24-10.07 17.44a8.73 8.73 0 0 1-4.24 1.32 4.48 4.48 0 0 1-2.27-.58c-1.69-1-2.62-3.11-2.62-6 0-6.41 4.52-14.24 10.07-17.44a8.76 8.76 0 0 1 4.24-1.32m0-.94a9.52 9.52 0 0 0-4.71 1.44c-5.82 3.36-10.54 11.54-10.54 18.26 0 3.36 1.18 5.73 3.09 6.83a5.42 5.42 0 0 0 2.74.7 9.52 9.52 0 0 0 4.71-1.44c5.82-3.36 10.54-11.54 10.54-18.26 0-3.36-1.18-5.73-3.08-6.83a5.46 5.46 0 0 0-2.75-.7Z" style="fill:#ff8a00"/><path d="M74.78 207.64a2.69 2.69 0 0 0 4.41 2.54 9.74 9.74 0 0 0 4.41-7.63 2.69 2.69 0 0 0-4.41-2.55 9.75 9.75 0 0 0-4.41 7.64ZM85 209.62a3.08 3.08 0 0 0-3.12.25l-6.22 3.59c-2.08 1.2-3.88 4-4.53 6.95.07 0 .12.09.18.13a6.58 6.58 0 0 0 5.76.07l3.4-2a23.16 23.16 0 0 0 5.93-7.05 3.21 3.21 0 0 0-1.4-1.94Z" style="fill:#455a64"/><path d="M238.28 95.09v39.77l-177 101.91V197l177-101.91m.94-1.63-178.87 103v42l178.87-103v-42Z" style="fill:#ff8a00"/><path d="M94.48 192.07v.75c0 .65.46.92 1 .59l34.32-19.68a2.24 2.24 0 0 0 1-1.76v-.75c0-.65-.46-.92-1-.6l-34.29 19.69a2.23 2.23 0 0 0-1.03 1.76ZM95 200.55a.47.47 0 0 1-.24-.88l28.82-16.52a.47.47 0 0 1 .64.17.48.48 0 0 1-.17.65l-28.81 16.52a.46.46 0 0 1-.24.06ZM95 204.42a.49.49 0 0 1-.41-.24.47.47 0 0 1 .17-.64L114.88 192a.47.47 0 0 1 .47.82l-20.11 11.54a.46.46 0 0 1-.24.06ZM202.82 131.08a.47.47 0 0 1-.23-.88l28.81-16.52a.46.46 0 0 1 .64.17.47.47 0 0 1-.17.64L203.06 131a.53.53 0 0 1-.24.08ZM202.82 135a.49.49 0 0 1-.41-.24.48.48 0 0 1 .18-.65l20.1-11.53a.48.48 0 0 1 .65.18.47.47 0 0 1-.18.64l-20.1 11.53a.44.44 0 0 1-.24.07ZM202.82 139.34a.47.47 0 0 1-.23-.88l28.81-16.52a.47.47 0 0 1 .64.17.48.48 0 0 1-.17.65l-28.81 16.52a.53.53 0 0 1-.24.06ZM202.82 143.21a.49.49 0 0 1-.41-.24.46.46 0 0 1 .18-.64l20.1-11.53a.47.47 0 0 1 .65.17.46.46 0 0 1-.18.64l-20.1 11.53a.44.44 0 0 1-.24.07ZM136.82 189.21a.48.48 0 0 1-.47-.48v-29.9a.47.47 0 0 1 .94 0v29.9a.48.48 0 0 1-.47.48ZM197.6 154.27a.47.47 0 0 1-.47-.47v-29.91a.47.47 0 0 1 .94 0v29.91a.47.47 0 0 1-.47.47ZM161.93 150.13l11.17-6.45c1-.56 1.74-.11 1.74 1v12.9a3.83 3.83 0 0 1-1.74 3L161.93 167c-1 .55-1.73.11-1.73-1v-12.9a3.81 3.81 0 0 1 1.73-2.97Z" style="fill:#e0e0e0"/><path d="M167.52 152.34a5.4 5.4 0 0 0-2.26 4.32c0 1.66 1 2.42 2.26 1.7a5.42 5.42 0 0 0 2.25-4.31c0-1.66-1.01-2.42-2.25-1.71Zm0 5c-.81.46-1.47 0-1.47-1.11a3.51 3.51 0 0 1 1.47-2.8c.8-.47 1.46 0 1.46 1.11a3.53 3.53 0 0 1-1.46 2.77Zm2.34-7.14a1.27 1.27 0 0 0-.53 1c0 .38.24.56.53.39a1.24 1.24 0 0 0 .53-1c0-.41-.24-.59-.53-.42Zm2 .25a4.22 4.22 0 0 0-.2-1.31 1.42 1.42 0 0 0-.51-.74 1.06 1.06 0 0 0-.78-.23 2.68 2.68 0 0 0-1.06.34c-.47.25-.62.33-1.81 1s-1.35.79-1.82 1.09a5.15 5.15 0 0 0-1.06.88 5 5 0 0 0-.78 1.13 5.49 5.49 0 0 0-.51 1.33 7 7 0 0 0-.2 1.54v4.83a4.28 4.28 0 0 0 .2 1.31 1.42 1.42 0 0 0 .51.74 1.11 1.11 0 0 0 .78.23 2.53 2.53 0 0 0 1.06-.35c.47-.24.62-.32 1.82-1s1.34-.78 1.81-1.08a4.92 4.92 0 0 0 1.06-.89 4.7 4.7 0 0 0 .78-1.12 5.49 5.49 0 0 0 .51-1.33 7 7 0 0 0 .2-1.54v-2.43c0-1.59.05-1.85.02-2.43Zm-.79 5.24a5.36 5.36 0 0 1-.15 1.17 3.54 3.54 0 0 1-.33.87 3.49 3.49 0 0 1-.5.73 4.62 4.62 0 0 1-.82.67c-.46.29-.6.38-1.77 1.06s-1.32.75-1.78 1a2 2 0 0 1-.82.27.68.68 0 0 1-.5-.15.87.87 0 0 1-.33-.48 3.24 3.24 0 0 1-.15-1v-4.74a5.36 5.36 0 0 1 .15-1.17 3.54 3.54 0 0 1 .33-.87 3.49 3.49 0 0 1 .5-.73 3.87 3.87 0 0 1 .82-.67c.46-.3.6-.38 1.78-1.06s1.31-.75 1.77-1a2 2 0 0 1 .82-.27.68.68 0 0 1 .5.15.87.87 0 0 1 .33.48 3.24 3.24 0 0 1 .15 1v2.35c0 1.56.04 1.7.02 2.36Z" style="fill:#fff"/><path d="M156.39 155.32c0-1.1-.78-1.55-1.74-1l-11.17 6.45a3.82 3.82 0 0 0-1.73 3v12.91c0 1.1.77 1.55 1.73 1l11.17-6.45a3.85 3.85 0 0 0 1.74-3Z" style="fill:#e0e0e0"/><path d="M151.59 173v-6.16l1.57-.9.29-2.76-1.86 1.08v-1.68a2.27 2.27 0 0 1 1.1-2l.84-.48v-2.21a10.17 10.17 0 0 0-1.5.69 5.55 5.55 0 0 0-2.54 4.95v2l-1.7 1V169l1.7-1v6.16Z" style="fill:#fff"/><path d="M193.18 134.17c0-1.11-.78-1.56-1.74-1l-11.17 6.45a3.84 3.84 0 0 0-1.73 3v12.9c0 1.1.77 1.55 1.73 1l11.17-6.45a3.83 3.83 0 0 0 1.74-3Z" style="fill:#e0e0e0"/><path d="M189.77 139.53c0-.06 0-.06 0 0a2.73 2.73 0 0 1-.31.14 1.45 1.45 0 0 1-1.75-1.25s0-.33 0-.48 0-.06 0 0l-1.39.8c-.09.05-.08 0-.08.15v8.31a3.31 3.31 0 0 1-.61 1.55 1.92 1.92 0 0 1-.95.77 1 1 0 0 1-.3 0h-.11c-.43-.15-.63-.58-.57-1.31a3.12 3.12 0 0 1 .86-1.91 1.65 1.65 0 0 1 .46-.36 1.21 1.21 0 0 1 .3-.11s0 0 .06-.08v-2a3.2 3.2 0 0 0-.57.31 4.47 4.47 0 0 0-.75.65 6.35 6.35 0 0 0-1 1.46 7 7 0 0 0-.6 1.49 6.37 6.37 0 0 0-.24 1.44 5.8 5.8 0 0 0 0 .59 4 4 0 0 0 .12.73 1.89 1.89 0 0 0 1 1.29.38.38 0 0 0 .15.05h.07a1.05 1.05 0 0 0 .24.06 2.39 2.39 0 0 0 1.63-.56 6.15 6.15 0 0 0 1.85-2.38 6.84 6.84 0 0 0 .68-2.87v-4a.17.17 0 0 1 0-.1s0 0 .07 0a2.17 2.17 0 0 0 1.21 0 3.25 3.25 0 0 0 .76-.32c.09-.05.1-.06.1-.17-.31-.48-.33-1.77-.33-1.89Z" style="fill:#fff"/><path d="M74.21 272.88a6.1 6.1 0 0 1-3.08-.8c-2.2-1.27-3.41-3.9-3.41-7.4 0-6.92 4.87-15.37 10.87-18.83 3-1.75 5.91-2 8.12-.74s3.42 3.9 3.42 7.4c0 6.92-4.88 15.37-10.88 18.84a10.3 10.3 0 0 1-5.04 1.53Zm9.42-27.24a9 9 0 0 0-4.38 1.36C73.62 250.25 69 258.18 69 264.68c0 3 1 5.23 2.76 6.26s4.19.76 6.79-.74c5.67-3.26 10.25-11.2 10.25-17.69 0-3-1-5.23-2.75-6.25a4.82 4.82 0 0 0-2.42-.62Z" style="fill:#e0e0e0"/><path d="M74.78 258.73a2.69 2.69 0 0 0 4.41 2.55 9.78 9.78 0 0 0 4.41-7.64 2.69 2.69 0 0 0-4.41-2.55 9.75 9.75 0 0 0-4.41 7.64ZM85 260.71a3.08 3.08 0 0 0-3.12.25l-6.22 3.59c-2.08 1.2-3.88 4-4.53 7l.18.12a6.58 6.58 0 0 0 5.76.07l3.4-2a23.16 23.16 0 0 0 5.93-7.05 3.21 3.21 0 0 0-1.4-1.98Z" style="fill:#455a64"/><path d="M238.28 146.19V186l-177 101.91v-39.82l177-101.9m.94-1.64-178.87 103v41.94l178.87-103v-41.94Z" style="fill:#e0e0e0"/><path d="M94.48 243.16v.75c0 .66.46.92 1 .6l34.32-19.68a2.28 2.28 0 0 0 1-1.77v-.75c0-.65-.46-.92-1-.59L95.51 241.4a2.23 2.23 0 0 0-1.03 1.76ZM95 251.65a.49.49 0 0 1-.41-.24.48.48 0 0 1 .17-.65l28.82-16.52a.47.47 0 0 1 .64.18.47.47 0 0 1-.17.64l-28.81 16.52a.48.48 0 0 1-.24.07ZM95 255.51a.47.47 0 0 1-.41-.24.47.47 0 0 1 .17-.64l20.11-11.53a.47.47 0 0 1 .47.82l-20.1 11.53a.46.46 0 0 1-.24.06ZM202.82 182.17a.47.47 0 0 1-.23-.88l28.81-16.52a.47.47 0 0 1 .64.17.48.48 0 0 1-.17.65l-28.81 16.52a.53.53 0 0 1-.24.06ZM202.82 186a.49.49 0 0 1-.41-.24.46.46 0 0 1 .18-.64l20.1-11.53a.47.47 0 0 1 .65.17.46.46 0 0 1-.18.64l-20.1 11.6a.53.53 0 0 1-.24 0ZM202.82 190.43a.47.47 0 0 1-.23-.88L231.4 173a.47.47 0 0 1 .64.17.48.48 0 0 1-.17.65l-28.81 16.52a.53.53 0 0 1-.24.09ZM202.82 194.3a.49.49 0 0 1-.41-.24.47.47 0 0 1 .18-.64l20.1-11.53a.48.48 0 0 1 .65.17.48.48 0 0 1-.18.65l-20.1 11.53a.53.53 0 0 1-.24.06ZM136.82 240.3a.47.47 0 0 1-.47-.47v-29.91a.47.47 0 0 1 .94 0v29.91a.47.47 0 0 1-.47.47ZM197.6 205.36a.47.47 0 0 1-.47-.47V175a.47.47 0 1 1 .94 0v29.9a.47.47 0 0 1-.47.46ZM161.93 201.22l11.17-6.45c1-.55 1.74-.11 1.74 1v12.9a3.82 3.82 0 0 1-1.74 3l-11.17 6.45c-1 .56-1.73.11-1.73-1v-12.9a3.82 3.82 0 0 1 1.73-3Z" style="fill:#e0e0e0"/><path d="M167.52 203.44a5.4 5.4 0 0 0-2.26 4.31c0 1.66 1 2.42 2.26 1.71a5.42 5.42 0 0 0 2.25-4.32c0-1.66-1.01-2.42-2.25-1.7Zm0 5c-.81.47-1.47 0-1.47-1.11a3.51 3.51 0 0 1 1.47-2.8c.8-.46 1.46 0 1.46 1.11a3.53 3.53 0 0 1-1.46 2.76Zm2.34-7.14a1.27 1.27 0 0 0-.53 1c0 .39.24.57.53.4a1.27 1.27 0 0 0 .53-1c0-.43-.24-.61-.53-.44Zm2 .25a4.28 4.28 0 0 0-.2-1.31 1.42 1.42 0 0 0-.51-.74 1.11 1.11 0 0 0-.78-.23 2.57 2.57 0 0 0-1.06.35c-.47.24-.62.32-1.81 1s-1.35.78-1.82 1.08a5.17 5.17 0 0 0-1.06.89 4.7 4.7 0 0 0-.78 1.12 5.49 5.49 0 0 0-.51 1.33 7 7 0 0 0-.2 1.54v4.83a4.22 4.22 0 0 0 .2 1.31 1.42 1.42 0 0 0 .51.74 1.06 1.06 0 0 0 .78.23 2.63 2.63 0 0 0 1.06-.34c.47-.25.62-.33 1.82-1s1.34-.79 1.81-1.09a4.9 4.9 0 0 0 1.06-.88 5 5 0 0 0 .78-1.13 5.49 5.49 0 0 0 .51-1.33 7 7 0 0 0 .2-1.54v-2.43c0-1.59.05-1.83.02-2.44Zm-.79 5.24a5.36 5.36 0 0 1-.15 1.17 3.54 3.54 0 0 1-.33.87 3.49 3.49 0 0 1-.5.73 3.87 3.87 0 0 1-.82.67c-.46.3-.6.38-1.77 1.06s-1.32.75-1.78 1a2 2 0 0 1-.82.27.68.68 0 0 1-.5-.15.87.87 0 0 1-.33-.48 3.24 3.24 0 0 1-.15-1v-4.74a5.36 5.36 0 0 1 .15-1.17 3.54 3.54 0 0 1 .33-.87 3.49 3.49 0 0 1 .5-.73 4.62 4.62 0 0 1 .82-.67c.46-.29.6-.38 1.78-1.06s1.31-.75 1.77-1a2 2 0 0 1 .82-.27.68.68 0 0 1 .5.15.87.87 0 0 1 .33.48 3.24 3.24 0 0 1 .15 1v2.36c0 1.57.04 1.71.02 2.34Z" style="fill:#fff"/><path d="M156.39 206.41c0-1.1-.78-1.55-1.74-1l-11.17 6.45a3.84 3.84 0 0 0-1.73 3v12.9c0 1.1.77 1.55 1.73 1l11.17-6.45a3.83 3.83 0 0 0 1.74-3Z" style="fill:#e0e0e0"/><path d="M151.59 224.09v-6.16l1.57-.91.29-2.76-1.86 1.08v-1.68a2.25 2.25 0 0 1 1.1-2l.84-.49v-2.21a9.66 9.66 0 0 0-1.5.7 5.52 5.52 0 0 0-2.54 5v2l-1.7 1v2.59l1.7-1v6.16Z" style="fill:#fff"/><path d="M193.18 185.26c0-1.11-.78-1.56-1.74-1l-11.17 6.45a3.82 3.82 0 0 0-1.73 3v12.9c0 1.11.77 1.56 1.73 1l11.17-6.45a3.83 3.83 0 0 0 1.74-3Z" style="fill:#e0e0e0"/><path d="M191 189.47c-.12-.55-.49-.83-.95-.72a33 33 0 0 0-4.23 2.14 39.9 39.9 0 0 0-4.23 2.74 3.48 3.48 0 0 0-1 1.83 28.2 28.2 0 0 0-.22 3.6 23 23 0 0 0 .22 3.34c.13.55.5.83 1 .72a33.72 33.72 0 0 0 4.23-2.14 41 41 0 0 0 4.23-2.74 3.4 3.4 0 0 0 .95-1.83 27 27 0 0 0 .23-3.6 22 22 0 0 0-.23-3.34Zm-6.26 9.25v-4.32l2.81.54Z" style="fill:#fff"/><path d="M74.21 324a6.09 6.09 0 0 1-3.08-.79c-2.2-1.28-3.41-3.91-3.41-7.4 0-6.93 4.87-15.38 10.87-18.84 3-1.75 5.91-2 8.12-.74s3.42 3.9 3.42 7.4c0 6.93-4.88 15.38-10.88 18.84a10.2 10.2 0 0 1-5.04 1.53Zm9.42-27.24a9 9 0 0 0-4.38 1.36C73.62 301.34 69 309.27 69 315.78c0 3 1 5.22 2.76 6.25s4.19.76 6.79-.74C84.22 318 88.8 310.1 88.8 303.6c0-3-1-5.22-2.75-6.25a4.82 4.82 0 0 0-2.42-.62Z" style="fill:#e0e0e0"/><path d="M74.78 309.82a2.69 2.69 0 0 0 4.41 2.55 9.78 9.78 0 0 0 4.41-7.64 2.69 2.69 0 0 0-4.41-2.54 9.71 9.71 0 0 0-4.41 7.63ZM85 311.81a3 3 0 0 0-3.12.25l-6.22 3.58c-2.08 1.21-3.88 4-4.53 7l.18.12a6.54 6.54 0 0 0 5.76.07l3.4-2a23 23 0 0 0 5.93-7.05 3.16 3.16 0 0 0-1.4-1.97Z" style="fill:#455a64"/><path d="M238.28 197.28v39.77L61.29 339v-39.82l177-101.9m.94-1.63-178.87 103v41.94l178.87-103v-41.94Z" style="fill:#e0e0e0"/><path d="M94.48 294.26v.74c0 .65.46.91 1 .59l34.32-19.68a2.28 2.28 0 0 0 1-1.77v-.75c0-.65-.46-.92-1-.59l-34.29 19.69a2.25 2.25 0 0 0-1.03 1.77ZM95 302.74a.49.49 0 0 1-.41-.24.47.47 0 0 1 .17-.64l28.82-16.53a.47.47 0 0 1 .47.82l-28.81 16.53a.46.46 0 0 1-.24.06ZM95 306.6a.47.47 0 0 1-.24-.88l20.11-11.53a.48.48 0 0 1 .64.18.46.46 0 0 1-.17.64l-20.1 11.53a.46.46 0 0 1-.24.06ZM202.82 233.26a.47.47 0 0 1-.23-.88l28.81-16.52a.47.47 0 0 1 .64.17.48.48 0 0 1-.17.65l-28.81 16.52a.53.53 0 0 1-.24.06ZM202.82 237.13a.49.49 0 0 1-.41-.24.47.47 0 0 1 .18-.64l20.1-11.53a.48.48 0 0 1 .65.17.48.48 0 0 1-.18.65l-20.1 11.53a.53.53 0 0 1-.24.06ZM202.82 241.53a.49.49 0 0 1-.41-.24.46.46 0 0 1 .18-.64l28.81-16.53a.47.47 0 0 1 .64.18.47.47 0 0 1-.17.64l-28.81 16.52a.44.44 0 0 1-.24.07ZM202.82 245.39a.47.47 0 0 1-.23-.88l20.1-11.51a.48.48 0 0 1 .65.17.48.48 0 0 1-.18.65l-20.1 11.53a.53.53 0 0 1-.24.04ZM136.82 291.39a.47.47 0 0 1-.47-.47V261a.47.47 0 0 1 .94 0v29.91a.47.47 0 0 1-.47.48ZM197.6 256.45a.47.47 0 0 1-.47-.47v-29.9a.47.47 0 0 1 .94 0V256a.47.47 0 0 1-.47.45ZM161.93 252.31l11.17-6.45c1-.55 1.74-.1 1.74 1v12.9a3.85 3.85 0 0 1-1.74 3l-11.17 6.45c-1 .55-1.73.1-1.73-1v-12.9a3.82 3.82 0 0 1 1.73-3Z" style="fill:#e0e0e0"/><path d="M167.52 254.53a5.4 5.4 0 0 0-2.26 4.31c0 1.66 1 2.43 2.26 1.71a5.42 5.42 0 0 0 2.25-4.31c0-1.67-1.01-2.43-2.25-1.71Zm0 5c-.81.47-1.47 0-1.47-1.11a3.5 3.5 0 0 1 1.47-2.79c.8-.47 1.46 0 1.46 1.1a3.53 3.53 0 0 1-1.46 2.76Zm2.34-7.14a1.27 1.27 0 0 0-.53 1c0 .39.24.57.53.4a1.27 1.27 0 0 0 .53-1c0-.43-.24-.6-.53-.44Zm2 .25a4.2 4.2 0 0 0-.2-1.3 1.49 1.49 0 0 0-.51-.75 1.16 1.16 0 0 0-.78-.23 2.73 2.73 0 0 0-1.06.35c-.47.24-.62.32-1.81 1s-1.35.78-1.82 1.08a5.22 5.22 0 0 0-1.84 2 5.49 5.49 0 0 0-.51 1.33 7 7 0 0 0-.2 1.54v4.84a4.2 4.2 0 0 0 .2 1.3 1.49 1.49 0 0 0 .51.75 1.1 1.1 0 0 0 .78.22 2.48 2.48 0 0 0 1.06-.34c.47-.24.62-.32 1.82-1s1.34-.78 1.81-1.08a5.22 5.22 0 0 0 1.06-.89 5 5 0 0 0 .78-1.13 5.34 5.34 0 0 0 .51-1.33 6.87 6.87 0 0 0 .2-1.54v-2.43c0-1.59.05-1.82.02-2.43Zm-.79 5.24a5.48 5.48 0 0 1-.15 1.18 3.33 3.33 0 0 1-.33.86 3.24 3.24 0 0 1-.5.73 3.87 3.87 0 0 1-.82.67c-.46.3-.6.38-1.77 1.06s-1.32.75-1.78 1a2 2 0 0 1-.82.27.72.72 0 0 1-.5-.14.93.93 0 0 1-.33-.49 3.24 3.24 0 0 1-.15-1v-4.73a5.38 5.38 0 0 1 .15-1.18 3.33 3.33 0 0 1 .33-.86 3 3 0 0 1 .5-.73 4.17 4.17 0 0 1 .82-.68c.46-.29.6-.38 1.78-1.06s1.31-.75 1.77-1a2 2 0 0 1 .82-.27.68.68 0 0 1 .5.15.94.94 0 0 1 .33.48 3.39 3.39 0 0 1 .15 1v2.35c0 1.57.04 1.72.02 2.35Z" style="fill:#fff"/><path d="M156.39 257.51c0-1.11-.78-1.56-1.74-1L143.48 263a3.81 3.81 0 0 0-1.73 3v12.9c0 1.11.77 1.55 1.73 1l11.17-6.45a3.83 3.83 0 0 0 1.74-3Z" style="fill:#e0e0e0"/><path d="M149.07 261.42c-2.91 1.68-5.17 5.82-5.17 9.66 0 2 .62 3.39 1.63 4a.4.4 0 0 1 .14.31v1.21c0 .39.31.47.58.16l1-1.2a.52.52 0 0 1 .27-.19 4.91 4.91 0 0 0 1.5-.59c2.91-1.68 5.16-5.83 5.16-9.66s-2.18-5.38-5.11-3.7Zm3.1 3.35-1.52 4.08c-.24.65-.76 1.08-1.12.92l-1.2-.51c-.11 0-.27.05-.38.22l-1.63 2.59c-.21.35-.5.16-.35-.23l1.51-4.08c.25-.65.76-1.08 1.12-.93l1.21.51c.11.05.26 0 .37-.21l1.63-2.59c.19-.35.51-.17.36.23Z" style="fill:#fff;fill-rule:evenodd"/><path d="M193.18 236.35c0-1.11-.78-1.55-1.74-1l-11.17 6.45a3.82 3.82 0 0 0-1.73 3v12.9c0 1.11.77 1.56 1.73 1l11.17-6.45a3.82 3.82 0 0 0 1.74-3Z" style="fill:#e0e0e0"/><path d="M189.77 241.71c0-.05 0-.05 0 0a1.66 1.66 0 0 1-.31.14 1.44 1.44 0 0 1-1.75-1.24s0-.34 0-.48 0-.07 0 0l-1.39.8c-.09.06-.08 0-.08.16v8.31a3.31 3.31 0 0 1-.61 1.55 1.84 1.84 0 0 1-.95.76 1 1 0 0 1-.3.05h-.11c-.43-.15-.63-.58-.57-1.3a3.12 3.12 0 0 1 .86-1.92 1.81 1.81 0 0 1 .46-.35.94.94 0 0 1 .3-.12s0 0 .06-.08v-1.94a3.2 3.2 0 0 0-.57.31 4.06 4.06 0 0 0-.75.65 6.51 6.51 0 0 0-1 1.45 6.91 6.91 0 0 0-.6 1.5 6.19 6.19 0 0 0-.24 1.44 5.8 5.8 0 0 0 0 .59 3.86 3.86 0 0 0 .12.72 1.87 1.87 0 0 0 1 1.29.27.27 0 0 0 .15.05h.07a.69.69 0 0 0 .24.05 2.38 2.38 0 0 0 1.63-.55 6.23 6.23 0 0 0 1.85-2.38 6.88 6.88 0 0 0 .68-2.88v-4.1c0-.03 0 0 .07 0a2.16 2.16 0 0 0 1.21 0 3.25 3.25 0 0 0 .76-.32c.09-.05.1-.06.1-.17-.31-.58-.33-1.86-.33-1.99Z" style="fill:#fff"/><path d="M248.62 241.61c-1.1.64-2 0-2-1.51V62.58a4.77 4.77 0 0 1 2-3.81c1.11-.64 2 0 2 1.51V237.8a4.75 4.75 0 0 1-2 3.81Z" style="fill:#e0e0e0"/><path d="M248.62 91c-.59.34-1.07 0-1.07-.8V62.49a2.55 2.55 0 0 1 1.07-2c.59-.34 1.07 0 1.07.8V89a2.55 2.55 0 0 1-1.07 2ZM377.83 61.36a1.23 1.23 0 0 0-.07-.39s0-.06 0-.09a1.06 1.06 0 0 0-.1-.37 1.67 1.67 0 0 0-.25-.54.55.55 0 0 0-.14-.23.88.88 0 0 0-.12-.15 1.48 1.48 0 0 0-.28-.28 1.58 1.58 0 0 0-.36-.2 3 3 0 0 0-2.85.36L129.15 200.22c-2.33 1.35-4.24 4.64-4.24 9.36v200.06a2.86 2.86 0 0 0 1.53 2.54l.18.13.22.12a1.55 1.55 0 0 0 .36.13 2.57 2.57 0 0 0 .55.06 2.64 2.64 0 0 0 1.4-.4l.11-.06 4-2.33 240.36-138.46a9.36 9.36 0 0 0 4.24-7.34V61.88a4.28 4.28 0 0 0-.03-.52Z" style="fill:#fafafa"/><path d="M375.5 60.08a1 1 0 0 1 .48.11h.08l.07.05.1.14.09.14a.56.56 0 0 1 .09.17l.11.34v.07a.53.53 0 0 1 0 .12 2.86 2.86 0 0 1 0 .42V264a8.19 8.19 0 0 1-3.63 6.29L132.71 408.77l-3.94 2.23-.11.07-.11.06a1.67 1.67 0 0 1-.74.24h-.06a1.16 1.16 0 0 1-.28 0h-.08l-.12-.07-.09-.06h-.07a1.66 1.66 0 0 1-.89-1.48V209.58c0-4.58 1.88-7.3 3.64-8.31L374.22 60.49a2.74 2.74 0 0 1 1.28-.41m0-1.21a3.81 3.81 0 0 0-1.88.57L129.15 200.22c-2.34 1.35-4.24 4.64-4.24 9.36v200.06a2.86 2.86 0 0 0 1.53 2.54l.18.13.22.12a1.55 1.55 0 0 0 .36.13 2.57 2.57 0 0 0 .55.06h.06a2.72 2.72 0 0 0 1.34-.41l.11-.06 4-2.33 240.36-138.45a9.36 9.36 0 0 0 4.24-7.34V61.88a4.28 4.28 0 0 0 0-.52 1.23 1.23 0 0 0-.07-.39s0-.06 0-.09a1.06 1.06 0 0 0-.1-.37 1.67 1.67 0 0 0-.25-.54.55.55 0 0 0-.14-.23.88.88 0 0 0-.12-.15 1.48 1.48 0 0 0-.28-.28 1.58 1.58 0 0 0-.36-.2 2.22 2.22 0 0 0-1-.21Z" style="fill:#ff8a00"/><path d="M376.47 59.08a3 3 0 0 0-2.85.36L129.15 200.22a9.37 9.37 0 0 0-4.24 7.34v8.22l-5.41-3.17v-8.12a9.34 9.34 0 0 1 4.23-7.33L368.21 56.38a2.94 2.94 0 0 1 3.08-.25c.76.46 4.28 2.47 5.18 2.95Z" style="fill:#ff8a00"/><path d="M377.85 61.86c0-2.68-1.9-3.76-4.23-2.42L129.15 200.22a9.37 9.37 0 0 0-4.24 7.34v8.22L377.85 70.13Z" style="fill:#ff8a00"/><g style="opacity:.2"><path d="M373.62 59.44 129.15 200.22a8.76 8.76 0 0 0-3 3.14l-5.38-3.11a8.54 8.54 0 0 1 2.94-3.1l244.5-140.78a3 3 0 0 1 3.08-.25c.76.47 4.27 2.47 5.17 3a3.05 3.05 0 0 0-2.84.32Z" style="fill:#fff"/></g><path d="M119.49 212.62v-8.14a8.66 8.66 0 0 1 1.29-4.23l5.39 3.1a8.62 8.62 0 0 0-1.26 4.21v8.22Z" style="opacity:.15"/><path d="M359.46 71.79a4.31 4.31 0 0 0-1.8 3.44c0 1.32.8 1.93 1.8 1.36a4.3 4.3 0 0 0 1.79-3.44c0-1.32-.8-1.93-1.79-1.36ZM365.93 68.05a4.31 4.31 0 0 0-1.8 3.44c0 1.32.81 1.93 1.8 1.36a4.34 4.34 0 0 0 1.8-3.44c0-1.32-.81-1.93-1.8-1.36ZM372.4 64.31a4.3 4.3 0 0 0-1.79 3.43c0 1.33.8 1.94 1.79 1.36a4.28 4.28 0 0 0 1.8-3.43c0-1.33-.8-1.94-1.8-1.36Z" style="fill:#fafafa"/><path d="m126.43 412.2-.22-.12-4.46-2.59a4.47 4.47 0 0 1-2.21-3.28 4.32 4.32 0 0 1-.05-.62v-193l5.42 3.17v193.87a2.77 2.77 0 0 0 1.32 2.41.51.51 0 0 0 .13.09Z" style="fill:#ff8a00"/><path d="m126.43 412.2-.22-.12-4.46-2.59a4.47 4.47 0 0 1-2.21-3.28 4.32 4.32 0 0 1-.05-.62v-193l5.42 3.17v193.87a2.77 2.77 0 0 0 1.32 2.41.51.51 0 0 0 .13.09Z" style="fill:#fff;opacity:.5"/><path d="M209.6 220c0 10.84-3.77 22.83-9.88 33.49q-1.46 2.55-3.09 5a88.854 88.854 0 0 1-3.39 4.69 82.23 82.23 0 0 1-3.23 3.89c-.52.59-1.07 1.18-1.6 1.74a58.82 58.82 0 0 1-13 10.49 38.49 38.49 0 0 1-7.13 3.26c-.8.26-1.59.49-2.36.67a20.63 20.63 0 0 1-12.21-.37c-7.65-2.83-12.52-11-12.53-23.31 0-21.83 15.33-48.38 34.23-59.28s34.19-2.08 34.19 19.73Z" style="fill:#fafafa"/><path d="M156.41 230.93c-1 3.92-.48 8 .15 12s1.37 8 .95 12c-.09.8-.16 1.74.45 2.25a1.59 1.59 0 0 0 2-.19 4.58 4.58 0 0 0 1.09-1.84l.72 8.66a5.16 5.16 0 0 0 .81 2.82c1 1.26 2.95 1.27 4.49.77 3.65-1.18 6.33-4.52 7.48-8.19a24.17 24.17 0 0 0 .26-11.41 47.09 47.09 0 0 0-5.32-14.72c-1.39-2.48-3-4.86-3.93-7.56a8.44 8.44 0 0 0-1.33-3c-.37-.43-.7-.29-1.18-.1a10.58 10.58 0 0 0-1.34.69 10.81 10.81 0 0 0-2.3 2 13.56 13.56 0 0 0-1.75 2.55 14 14 0 0 0-1.13 2.88Z" style="fill:#37474f"/><path d="M199.72 253.51q-1.46 2.55-3.09 5a88.854 88.854 0 0 1-3.39 4.69l-3.05-8.76c4.12-1.27 6.81-1.91 9.53-.93Z" style="fill:#ffbda7"/><path d="M196.44 257.11q-1.63 2.42-3.4 4.69-1.56 2-3.23 3.89c-.52.58-1.07 1.17-1.6 1.74a58.77 58.77 0 0 1-13 10.49 38.86 38.86 0 0 1-7.14 3.26c-.79.26-1.59.49-2.36.67a39.16 39.16 0 0 0-3.71-16.14s2.84-1.51 8.26-4.47l.18-.12c4.32-3 7.23-2.43 15.17-5.83.13-.07-1-.64-.83-.69L190 253a59.33 59.33 0 0 1 6.44 4.11Z" style="fill:#ff8a00"/><path d="M170 252.12c-.64-2.42-3.64-4.17-6.47-8.36s-6.48-13.62-.71-18c-1.06-5.64 3.46-12.58 9.63-15.35 8.12-3.65 17.61-3.15 23.1 3.8 6.5 8.21-.21 16-.21 16Z" style="fill:#455a64"/><path d="M194.54 243.18a11.21 11.21 0 0 1-2.4 4.76c-1.4 1.68-3.34 2.58-6.54 3.68l.09 2.18.06 1.41.06 1.46.05 2.51s3.86 4.56 4.15 7.89c-.52.59-1.07 1.18-1.6 1.74a37.29 37.29 0 0 1-17.94-5.81v-.37l-.17-3.66-.4-8.94-.07-2.52a2.32 2.32 0 0 1-.41.95 3.58 3.58 0 0 1-1.33 1.1 3.85 3.85 0 0 1-3.25.18l-.24-.13a1.2 1.2 0 0 1-.34-.17 1.11 1.11 0 0 1-.27-.17.89.89 0 0 1-.22-.16 1.3 1.3 0 0 1-.23-.18 6.47 6.47 0 0 1-1.93-7.46c.8-1.89 3-3.57 4.56-2.93s1.83 1.66 2.54 2.8 4-2.36 1.73-8.3c2.72-2.15 4-7.15 3.29-9.55 1.18-4.32 9.2-4.86 10.61-3.23 1.17-2.72 1-4.37 3.31-3.66s6.09 2.21 7.43 11.62a39.34 39.34 0 0 1-.54 14.96Z" style="fill:#ffbda7"/><path d="m180.39 242.3 4.79.13a3.15 3.15 0 0 1-3.13 2.78c-1.31-.1-1.89-1.32-1.66-2.91Z" style="fill:#b16668"/><path d="M183.4 244.92a2.08 2.08 0 0 0-2.8-1.71l-.23.11a1.84 1.84 0 0 0 1.68 1.89 2.64 2.64 0 0 0 1.35-.29Z" style="fill:#f28f8f"/><path style="fill:#f0997a" d="m184.85 229.7 1.1 9.35 4.48-3.04-5.58-6.31z"/><path d="M189.7 230.15a1.24 1.24 0 0 0 1.52 1.32 2.08 2.08 0 0 0 1.56-1.94 1.24 1.24 0 0 0-1.51-1.32 2.09 2.09 0 0 0-1.57 1.94ZM178.61 233.91a1.24 1.24 0 0 0 1.52 1.32 2.09 2.09 0 0 0 1.56-1.94 1.24 1.24 0 0 0-1.51-1.32 2.09 2.09 0 0 0-1.57 1.94Z" style="fill:#263238"/><path d="M185.61 251.62a21.28 21.28 0 0 1-9.54-.45 9.31 9.31 0 0 1-4.48-3.7s-.33 3 4.18 5.13c3.54 1.65 9.93 1.21 9.93 1.21Z" style="fill:#f0997a"/><path d="m192.6 225.53-3.41.22a2.78 2.78 0 0 1 2.23-2c.95-.07 1.48.73 1.18 1.78ZM181.29 228.57l-3.72 2.48a2.64 2.64 0 0 1 1.27-2.81c1.03-.68 2.16-.54 2.45.33Z" style="fill:#263238"/><path d="M187.64 216.23c.68 3.72-3.66 12.33-9.46 16.24s-9.54 3.16-9.54 3.16-.68-11.87 5.09-16.35 13.91-3.05 13.91-3.05Z" style="fill:#455a64"/><path d="M168.25 282.56c-.8.26-1.59.49-2.36.67a20.63 20.63 0 0 1-12.21-.37 13 13 0 0 1-3.79-3c4.19-9.93 6.41-11.81 12.11-14.16 3.88 2.84 5.61 12.49 6.25 16.86Z" style="fill:#ffbda7"/><path d="M190.67 197.48c10.51 0 17 8.64 17 22.54 0 10.16-3.42 21.71-9.64 32.55-.93 1.64-1.94 3.28-3 4.86s-2.18 3.11-3.33 4.59-2.11 2.63-3.15 3.79c-.51.58-1 1.15-1.55 1.7a57.2 57.2 0 0 1-12.6 10.15 37.74 37.74 0 0 1-6.78 3.11c-.76.25-1.5.46-2.22.62a22.26 22.26 0 0 1-5.35.69 16.31 16.31 0 0 1-5.75-1c-7.17-2.65-11.29-10.5-11.3-21.53 0-21.2 14.93-47.06 33.29-57.65 5-2.89 10-4.42 14.34-4.42m0-1.89c-4.6 0-9.79 1.5-15.29 4.68-18.9 10.9-34.23 37.45-34.23 59.28 0 12.3 4.88 20.48 12.53 23.31a18.28 18.28 0 0 0 6.41 1.11 24.15 24.15 0 0 0 5.8-.74c.77-.18 1.56-.41 2.36-.67a38.49 38.49 0 0 0 7.13-3.26 58.82 58.82 0 0 0 13-10.49c.53-.56 1.08-1.15 1.6-1.74a82.23 82.23 0 0 0 3.23-3.89c1.17-1.52 2.31-3.08 3.39-4.69s2.12-3.28 3.09-5c6.11-10.66 9.88-22.65 9.88-33.49 0-15.48-7.71-24.43-18.93-24.43Z" style="fill:#ff8a00"/><path d="M222.38 350.2a.94.94 0 0 1-.94-.94V169.7a.94.94 0 0 1 1.88 0v179.56a.94.94 0 0 1-.94.94ZM146.33 310.36v1.41c0 1.22.86 1.72 1.92 1.11l54.25-31.1a4.22 4.22 0 0 0 1.92-3.31v-1.41c0-1.22-.86-1.72-1.92-1.11l-54.25 31.1a4.22 4.22 0 0 0-1.92 3.31ZM157 315.9a.94.94 0 0 1-.47-1.76l36.75-21.08a.95.95 0 1 1 .94 1.64l-36.75 21.07a.9.9 0 0 1-.47.13ZM161.81 334a.95.95 0 0 1-.47-1.77l36.76-21.07a.94.94 0 1 1 .94 1.63l-36.76 21.08a.9.9 0 0 1-.47.13ZM150.38 354a.94.94 0 0 1-.47-1.76l50-28.68a.95.95 0 0 1 .94 1.64l-50 28.67a.84.84 0 0 1-.47.13ZM150.38 361.53a.94.94 0 0 1-.47-1.76l50-28.68a.95.95 0 0 1 .94 1.64l-50 28.67a.84.84 0 0 1-.47.13ZM150.38 369.05a.94.94 0 0 1-.47-1.76l50-28.68a.95.95 0 1 1 .94 1.64l-50 28.68a1 1 0 0 1-.47.12ZM150.38 376.57a.94.94 0 0 1-.47-1.76l50-28.67a.94.94 0 1 1 .94 1.63l-50 28.68a1 1 0 0 1-.47.12ZM157 331.26c0-3-2-4.26-4.38-2.86a10 10 0 0 0-4.38 7.92v.68c0 2.29 2.6 4.95 3.79 6.06a.59.59 0 0 0 .93-.18c1-2.11 4-8.47 4-10.93Zm-4.35 4.74c-1.21.7-2.19.13-2.19-1.26a4.82 4.82 0 0 1 2.19-3.79c1.21-.7 2.19-.14 2.19 1.26a4.83 4.83 0 0 1-2.19 3.79ZM233.92 210.75a.94.94 0 0 1-.47-1.76l133.35-76.48a.95.95 0 1 1 .94 1.64l-133.35 76.47a.9.9 0 0 1-.47.13ZM233.92 302.94a.93.93 0 0 1-.82-.48 1 1 0 0 1 .35-1.29L366.8 224.7a.95.95 0 1 1 .94 1.64l-133.35 76.47a.9.9 0 0 1-.47.13Z" style="fill:#e0e0e0"/><path d="m249.37 276.68-6.18 3.56a1.71 1.71 0 0 0-.7 1.35v.14c0 .51.32.75.7.53l6.18-3.56a1.72 1.72 0 0 0 .7-1.35v-.14c0-.52-.32-.76-.7-.53ZM262.76 268.94l-6.17 3.56a1.69 1.69 0 0 0-.7 1.35v.15c0 .52.31.76.7.53l6.17-3.56a1.7 1.7 0 0 0 .71-1.35v-.14c0-.48-.32-.76-.71-.54ZM276.16 261.2l-6.16 3.57a1.66 1.66 0 0 0-.7 1.34v.14c0 .52.31.76.7.53l6.17-3.56a1.68 1.68 0 0 0 .71-1.34v-.14c-.01-.52-.33-.74-.72-.54ZM289.56 253.47l-6.17 3.53a1.68 1.68 0 0 0-.7 1.34v.14c0 .52.31.76.7.54l6.17-3.57a1.67 1.67 0 0 0 .71-1.34V254c0-.52-.27-.76-.71-.53ZM303 245.73l-6.17 3.56a1.69 1.69 0 0 0-.7 1.35v.14c0 .52.31.76.7.53l6.17-3.56a1.7 1.7 0 0 0 .71-1.35v-.14c-.04-.52-.36-.76-.71-.53ZM316.36 238l-6.17 3.57a1.66 1.66 0 0 0-.7 1.34v.09c0 .52.31.76.7.53l6.17-3.56a1.68 1.68 0 0 0 .7-1.35v-.14c0-.48-.31-.71-.7-.48ZM329.76 230.26l-6.17 3.56a1.68 1.68 0 0 0-.71 1.34v.14c0 .52.32.76.71.54l6.17-3.57a1.66 1.66 0 0 0 .7-1.34v-.14c0-.52-.31-.79-.7-.53ZM343.16 222.52l-6.16 3.56a1.7 1.7 0 0 0-.71 1.35v.14c0 .52.32.75.71.53l6.17-3.56a1.69 1.69 0 0 0 .7-1.35v-.14c-.01-.52-.32-.76-.71-.53ZM356.56 214.78l-6.17 3.56a1.7 1.7 0 0 0-.71 1.35v.14c0 .52.32.76.71.53l6.17-3.56a1.68 1.68 0 0 0 .7-1.35v-.14c0-.51-.26-.75-.7-.53Z" style="fill:#455a64"/><path style="fill:#ff8a00" d="m242.26 258.45 7.59-4.38v12.47l-7.59 4.39v-12.48zM255.66 237.86l7.59-4.38v25.33l-7.59 4.38v-25.33z"/><path style="fill:#fff;opacity:.8" d="m255.66 237.86 7.59-4.38v25.33l-7.59 4.38v-25.33z"/><path style="fill:#ff8a00" d="m269.05 214.09 7.59-4.38v41.37l-7.59 4.38v-41.37z"/><path style="fill:#fff;opacity:.30000000000000004" d="m269.05 214.09 7.59-4.38v41.37l-7.59 4.38v-41.37z"/><path style="fill:#ff8a00" d="m282.44 228.75 7.59-4.38v18.97l-7.59 4.38v-18.97z"/><path style="fill:#fff;opacity:.6000000000000001" d="m282.44 228.75 7.59-4.38v18.97l-7.59 4.38v-18.97z"/><path style="fill:#ff8a00" d="m295.84 216.81 7.59-4.39v23.19l-7.59 4.38v-23.18z"/><path style="fill:#fff;opacity:.8" d="m295.84 216.81 7.59-4.39v23.19l-7.59 4.38v-23.18z"/><path style="fill:#ff8a00" d="m309.23 201.91 7.59-4.38v30.35l-7.59 4.38v-30.35zM322.63 210.5l7.59-4.39v14.03l-7.59 4.39V210.5z"/><path style="fill:#fff;opacity:.30000000000000004" d="m322.63 210.5 7.59-4.39v14.03l-7.59 4.39V210.5z"/><path style="fill:#ff8a00" d="m336.02 198.29 7.59-4.38v18.5l-7.59 4.38v-18.5z"/><path style="fill:#fff;opacity:.8" d="m336.02 198.29 7.59-4.38v18.5l-7.59 4.38v-18.5z"/><path style="fill:#ff8a00" d="m349.42 187.59 7.58-4.39v21.48l-7.58 4.38v-21.47zM356.87 166.9c-8.39 17.76-19.48 22.94-26.42 22a23.81 23.81 0 0 1-6.07-1.79c-3.29-1.34-5.89-2.4-11.35.75-3.51 2-6.41 5.76-9.23 9.37-3.64 4.68-7.09 9.11-11.29 8.7-2.95-.28-5-2.43-7-4.5-3.09-3.21-6.29-6.52-12.64-2.85-10.62 6.12-22.76 29.37-31 46.32l.78.79c8.07-16.67 20-39.5 30.2-45.4 5.87-3.39 8.77-.39 11.83 2.79 2.08 2.15 4.23 4.38 7.38 4.69 4.66.44 8.33-4.26 12.21-9.25 2.7-3.47 5.5-7.06 8.76-8.94 5.14-3 7.49-2 10.75-.68a23.93 23.93 0 0 0 6.2 1.83c7.27 1 18.88-4.43 27.68-23.05Z"/><path d="M356.87 166.9c-8.39 17.76-19.48 22.94-26.42 22a23.81 23.81 0 0 1-6.07-1.79c-3.29-1.34-5.89-2.4-11.35.75-3.51 2-6.41 5.76-9.23 9.37-3.64 4.68-7.09 9.11-11.29 8.7-2.95-.28-5-2.43-7-4.5-3.09-3.21-6.29-6.52-12.64-2.85-10.62 6.12-22.76 29.37-31 46.32l.78.79c8.07-16.67 20-39.5 30.2-45.4 5.87-3.39 8.77-.39 11.83 2.79 2.08 2.15 4.23 4.38 7.38 4.69 4.66.44 8.33-4.26 12.21-9.25 2.7-3.47 5.5-7.06 8.76-8.94 5.14-3 7.49-2 10.75-.68a23.93 23.93 0 0 0 6.2 1.83c7.27 1 18.88-4.43 27.68-23.05Z" style="fill:#fff;opacity:.30000000000000004"/><path d="M274.88 295.69a.93.93 0 0 1-.82-.48.94.94 0 0 1 .35-1.29L309 274.08a.94.94 0 1 1 .93 1.63l-34.61 19.85a.87.87 0 0 1-.44.13ZM274.88 303.31a.94.94 0 0 1-.47-1.76L309 281.7a.94.94 0 1 1 .93 1.63l-34.61 19.85a.87.87 0 0 1-.44.13ZM274.88 310.93a.94.94 0 0 1-.47-1.76L309 289.32a.94.94 0 0 1 1 1.68l-34.66 19.8a.87.87 0 0 1-.46.13ZM234.68 309.15l32.66-18.86c.42-.25.76-.05.76.43v29.5a1.67 1.67 0 0 1-.76 1.31l-32.66 18.86c-.42.24-.76.05-.76-.44v-29.49a1.67 1.67 0 0 1 .76-1.31Z" style="fill:#e0e0e0"/><path d="m255.3 318.93 2.58 3.63-11.67-10.62-12.29 20.83V340c0 .49.34.68.76.44l32.66-18.86a1.67 1.67 0 0 0 .76-1.31v-4l-8.7-6.27ZM256.71 301.47c1.52-.88 2.75-.17 2.75 1.59a6.1 6.1 0 0 1-2.75 4.78c-1.53.88-2.76.16-2.76-1.6a6.08 6.08 0 0 1 2.76-4.77Z" style="fill:#f5f5f5"/><path d="M356.38 249a1 1 0 0 1-.82-.48 1 1 0 0 1 .36-1.29L366.8 241a.95.95 0 1 1 .94 1.64l-10.89 6.2a.9.9 0 0 1-.47.16ZM356.38 256.57a.95.95 0 0 1-.46-1.77l10.88-6.2a.95.95 0 0 1 .94 1.64l-10.89 6.2a.9.9 0 0 1-.47.13ZM356.38 264.19a1 1 0 0 1-.82-.48.94.94 0 0 1 .36-1.28l10.88-6.21a1 1 0 0 1 1.29.36.94.94 0 0 1-.35 1.28l-10.89 6.21a1 1 0 0 1-.47.12ZM316.19 262.41l32.66-18.87c.42-.24.76 0 .76.44v29.49a1.67 1.67 0 0 1-.76 1.32l-32.66 18.86c-.42.24-.76.05-.76-.44v-29.49a1.67 1.67 0 0 1 .76-1.31Z" style="fill:#e0e0e0"/><path d="m336.81 272.19 2.58 3.63-11.67-10.62-12.29 20.8v7.18c0 .49.34.68.76.44l32.66-18.86a1.67 1.67 0 0 0 .76-1.32v-3.94l-8.7-6.27ZM338.21 254.73c1.53-.88 2.76-.17 2.76 1.59a6.08 6.08 0 0 1-2.76 4.78c-1.52.88-2.75.16-2.75-1.6a6.1 6.1 0 0 1 2.75-4.77Z" style="fill:#f5f5f5"/><path d="m273.35 145.83 18.45-10.65c1.58-.91 2.86-.17 2.86 1.66v21.3a6.35 6.35 0 0 1-2.86 5l-18.44 10.65c-1.59.91-2.87.17-2.87-1.66v-21.3a6.35 6.35 0 0 1 2.86-5Z" style="fill:#ff8a00"/><g style="opacity:.5"><path d="m273.35 145.83 18.45-10.65c1.58-.91 2.86-.17 2.86 1.66v21.3a6.35 6.35 0 0 1-2.86 5l-18.44 10.65c-1.59.91-2.87.17-2.87-1.66v-21.3a6.35 6.35 0 0 1 2.86-5Z" style="fill:#fff"/></g><path d="M282.58 149.5c-2.06 1.19-3.73 4.37-3.73 7.12s1.67 4 3.73 2.81 3.72-4.37 3.72-7.12-1.66-4-3.72-2.81Zm0 8.19c-1.34.77-2.42-.05-2.42-1.83a5.78 5.78 0 0 1 2.42-4.62c1.33-.77 2.42 0 2.42 1.83a5.81 5.81 0 0 1-2.42 4.62Zm3.87-11.79a2.1 2.1 0 0 0-.87 1.67c0 .64.39.93.87.66a2.1 2.1 0 0 0 .87-1.67c0-.64-.39-.93-.87-.66Zm3.34.41a7.15 7.15 0 0 0-.34-2.15 2.42 2.42 0 0 0-.83-1.23 1.86 1.86 0 0 0-1.29-.38 4.38 4.38 0 0 0-1.76.57c-.77.4-1 .53-3 1.67s-2.22 1.29-3 1.79a8.21 8.21 0 0 0-1.76 1.46 8.45 8.45 0 0 0-1.29 1.86 9.8 9.8 0 0 0-.84 2.2 11.38 11.38 0 0 0-.33 2.54c0 1.05-.05 1.39-.05 4s0 3 .05 4a6.9 6.9 0 0 0 .33 2.15 2.49 2.49 0 0 0 .84 1.23 1.84 1.84 0 0 0 1.29.38 4.42 4.42 0 0 0 1.76-.57c.77-.4 1-.53 3-1.67s2.22-1.29 3-1.79a8.47 8.47 0 0 0 1.76-1.46 8.8 8.8 0 0 0 1.29-1.86 9.3 9.3 0 0 0 .83-2.2 11.93 11.93 0 0 0 .34-2.54v-4c0-2.61.04-2.99 0-4Zm-1.31 8.69a8.49 8.49 0 0 1-.25 1.94 5.62 5.62 0 0 1-.54 1.43 5.28 5.28 0 0 1-.83 1.21 6.37 6.37 0 0 1-1.35 1.11c-.77.49-1 .63-2.93 1.75s-2.17 1.24-2.93 1.63a3.36 3.36 0 0 1-1.35.45 1.18 1.18 0 0 1-.84-.24 1.63 1.63 0 0 1-.54-.8 5.3 5.3 0 0 1-.25-1.66V154.01a8.7 8.7 0 0 1 .25-1.95 6.11 6.11 0 0 1 .54-1.42 5.41 5.41 0 0 1 .84-1.21 6.11 6.11 0 0 1 1.35-1.11c.76-.49 1-.63 2.93-1.75s2.16-1.24 2.93-1.63a3.31 3.31 0 0 1 1.35-.45 1.14 1.14 0 0 1 .83.24 1.56 1.56 0 0 1 .54.8 5.3 5.3 0 0 1 .25 1.66v3.88c0 2.58.04 2.85 0 3.93Z" style="fill:#fff"/><path d="M264.21 154.41c0-1.82-1.29-2.56-2.87-1.65l-18.44 10.65a6.33 6.33 0 0 0-2.87 5v21.3c0 1.82 1.29 2.56 2.87 1.65l18.44-10.65a6.33 6.33 0 0 0 2.87-5Z" style="fill:#ff8a00"/><g style="opacity:.5"><path d="M264.21 154.41c0-1.82-1.29-2.56-2.87-1.65l-18.44 10.65a6.33 6.33 0 0 0-2.87 5v21.3c0 1.82 1.29 2.56 2.87 1.65l18.44-10.65a6.33 6.33 0 0 0 2.87-5Z" style="fill:#fff"/></g><path d="M256.28 183.59v-10.17l2.59-1.49.49-4.56-3.08 1.78v-2.78a3.71 3.71 0 0 1 1.81-3.35l1.4-.81v-3.64a16.91 16.91 0 0 0-2.48 1.15c-2.54 1.46-4.19 4.46-4.19 8.17v3.26l-2.82 1.62v4.28l2.82-1.63v10.17Z" style="fill:#fff"/><path d="M325 119.48c0-1.82-1.28-2.56-2.86-1.65l-18.45 10.65a6.32 6.32 0 0 0-2.86 5v21.3c0 1.82 1.28 2.56 2.86 1.65l18.45-10.65a6.32 6.32 0 0 0 2.86-5Z" style="fill:#ff8a00"/><g style="opacity:.5"><path d="M325 119.48c0-1.82-1.28-2.56-2.86-1.65l-18.45 10.65a6.32 6.32 0 0 0-2.86 5v21.3c0 1.82 1.28 2.56 2.86 1.65l18.45-10.65a6.32 6.32 0 0 0 2.86-5Z" style="fill:#fff"/></g><path d="M319.32 128.34c0-.09 0-.09-.07-.05a3.14 3.14 0 0 1-.5.23 2.39 2.39 0 0 1-2.89-2.06 6.74 6.74 0 0 1-.08-.79c0-.11 0-.11-.08-.06h-.06l-2.29 1.39c-.16.08-.13 0-.13.25v13.25a4.32 4.32 0 0 1 0 .5 5.44 5.44 0 0 1-1 2.57 3.15 3.15 0 0 1-1.56 1.26 1.84 1.84 0 0 1-.51.07l-.17-.07c-.71-.25-1.05-1-.94-2.15a5.15 5.15 0 0 1 1.42-3.16 2.7 2.7 0 0 1 .76-.59 1.71 1.71 0 0 1 .5-.19c.05 0 .08-.05.09-.14v-3.29c0-.06 0-.06-.07 0a5.66 5.66 0 0 0-.93.5 7.61 7.61 0 0 0-1.24 1.08 10.75 10.75 0 0 0-1.7 2.4 12.5 12.5 0 0 0-1 2.47 9.8 9.8 0 0 0-.4 2.38 7.85 7.85 0 0 0 0 1 7.15 7.15 0 0 0 .2 1.2 3.1 3.1 0 0 0 1.59 2.13.54.54 0 0 0 .24.09l.11.07a1.3 1.3 0 0 0 .39.09 4 4 0 0 0 2.69-.92 10.06 10.06 0 0 0 3.05-3.93 11.24 11.24 0 0 0 1.14-4.75v-6.78c0-.05.07 0 .1 0a3.57 3.57 0 0 0 2 0 5.64 5.64 0 0 0 1.27-.53c.13-.08.15-.1.15-.28-.05-.86-.08-2.99-.08-3.19Z" style="fill:#fff"/><path d="M354.74 102.44c0-1.83-1.28-2.57-2.86-1.66l-18.45 10.65a6.35 6.35 0 0 0-2.86 5v21.3c0 1.83 1.28 2.57 2.86 1.65l18.45-10.65a6.32 6.32 0 0 0 2.86-5Z" style="fill:#ff8a00"/><path d="M354.74 102.44c0-1.83-1.28-2.57-2.86-1.66l-18.45 10.65a6.35 6.35 0 0 0-2.86 5v21.3c0 1.83 1.28 2.57 2.86 1.65l18.45-10.65a6.32 6.32 0 0 0 2.86-5Z" style="fill:#fff;opacity:.5"/><path d="M350 110.88c-.18-.78-.7-1.17-1.36-1-1.2.26-6 3-6 3a58.11 58.11 0 0 0-6 3.9 4.89 4.89 0 0 0-1.36 2.59 39.33 39.33 0 0 0-.32 5.12 31.88 31.88 0 0 0 .32 4.74c.18.78.7 1.18 1.36 1 1.2-.26 6-3 6-3a57.74 57.74 0 0 0 6-3.89 4.92 4.92 0 0 0 1.36-2.6 39.12 39.12 0 0 0 .32-5.11 32 32 0 0 0-.32-4.75ZM341.12 124v-6.14l4 .77Z" style="fill:#fff"/><path d="M454.11 390.59s-6-21.32-.1-44.3c3.29-12.84 10.86-19.38 15.79-20.41 5.53-1.15 11.7 3.59 7.54 12.25-3.95 8.23-12.75 12.27-16.11 33.07a88.07 88.07 0 0 0-1.11 19.38 1.77 1.77 0 0 1-2.55 1.71Z" style="fill:#ff8a00"/><path d="M454.11 390.59s-6-21.32-.1-44.3c3.29-12.84 10.86-19.38 15.79-20.41 5.53-1.15 11.7 3.59 7.54 12.25-3.95 8.23-12.75 12.27-16.11 33.07a88.07 88.07 0 0 0-1.11 19.38 1.77 1.77 0 0 1-2.55 1.71Z" style="fill:#fff;opacity:.5"/><path d="M457.1 385.5a.37.37 0 0 0 .28-.42c-4.83-24.57 5.09-46.47 13.69-54.18a.36.36 0 0 0 0-.5.35.35 0 0 0-.49 0c-8.72 7.82-18.79 30-13.91 54.84a.36.36 0 0 0 .43.26Z" style="fill:#fff"/><path d="M458.13 392.55a1.77 1.77 0 0 0 2.55-1.31c.81-5.07 3.47-10.45 8.77-16.35 6.17-6.86 14.92-13.43 13-18.83s-9.14-3.56-14-.06-15.39 16.1-11.2 36.11Z" style="fill:#ff8a00"/><path d="M458.13 392.55a1.77 1.77 0 0 0 2.55-1.31c.81-5.07 3.47-10.45 8.77-16.35 6.17-6.86 14.92-13.43 13-18.83s-9.14-3.56-14-.06-15.39 16.1-11.2 36.11Z" style="fill:#fff;opacity:.65"/><path d="M458.64 392.91a.34.34 0 0 0 .28-.35c-1.76-15.13 9.5-33.05 18.29-36.91a.35.35 0 0 0 .17-.47.36.36 0 0 0-.46-.17c-8.79 3.06-21.16 22.43-18.7 37.56a.38.38 0 0 0 .36.35Z" style="fill:#fff"/><path d="M64.83 432.78c-8-8.29-12.76-29.25-4.92-35.83h39.9c7.84 6.58 3.12 27.53-4.91 35.83l-.22.23-.28.27c-.23.22-.47.44-.72.65l-.2.16c-.19.15-.39.31-.6.46s-.69.47-1 .67c-6.62 3.86-17.34 3.86-24 0a11 11 0 0 1-1-.68c-.2-.14-.38-.28-.56-.43l-.24-.19a8.47 8.47 0 0 1-.7-.63L65 433Z" style="fill:#37474f"/><path d="M96.35 394.3c9.1 5.31 9.1 13.93 0 19.25s-23.87 5.31-33 0-9.1-13.94 0-19.25 23.89-5.3 33 0Z" style="fill:#455a64"/><path d="M92 396.85c6.68 3.91 6.68 10.24 0 14.14s-17.53 3.9-24.21 0-6.69-10.23 0-14.14 17.49-3.85 24.21 0Z" style="fill:#263238"/><path d="M67.76 403.56c6.68-3.9 17.52-3.9 24.21 0a11.16 11.16 0 0 1 4 3.72A11.23 11.23 0 0 1 92 411c-6.69 3.9-17.53 3.9-24.21 0a11.27 11.27 0 0 1-4-3.71 11.2 11.2 0 0 1 3.97-3.73Z" style="fill:#fff"/><path d="M74.4 365.21c-2.69 3.4-10.78 4.9-14.81-3.44-3.79-7.81-7.79-15.19-9-18.08a3.05 3.05 0 0 1 1.65-4.08s-.1-4.44 7.63-2 13.37 6.58 17.21 13.7 2.27 12.53-2.68 13.9Z" style="fill:#ff8a00"/><g style="opacity:.5"><path d="M74.4 365.21c-2.69 3.4-10.78 4.9-14.81-3.44-3.79-7.81-7.79-15.19-9-18.08a3.05 3.05 0 0 1 1.65-4.08s-.1-4.44 7.63-2 13.37 6.58 17.21 13.7 2.27 12.53-2.68 13.9Z" style="fill:#fff"/></g><path d="M78.52 376.32a39.4 39.4 0 0 0-1-4.43 63.11 63.11 0 0 0-3.14-8.46A64.37 64.37 0 0 0 64.46 348a55.79 55.79 0 0 0-7.46-7.19c-.08-.06-.13.11-.07.17a68.46 68.46 0 0 1 11.83 14 68.73 68.73 0 0 1 7.47 16.3c.49 1.6 1 3.21 1.39 4.84s.74 3.33 1.15 5c0 .17.31.25.3 0a31.87 31.87 0 0 0-.55-4.8Z" style="fill:#ff8a00"/><path d="M78.52 376.32a39.4 39.4 0 0 0-1-4.43 63.11 63.11 0 0 0-3.14-8.46A64.37 64.37 0 0 0 64.46 348a55.79 55.79 0 0 0-7.46-7.19c-.08-.06-.13.11-.07.17a68.46 68.46 0 0 1 11.83 14 68.73 68.73 0 0 1 7.47 16.3c.49 1.6 1 3.21 1.39 4.84s.74 3.33 1.15 5c0 .17.31.25.3 0a31.87 31.87 0 0 0-.55-4.8Z" style="opacity:.30000000000000004"/><path d="M83.17 359.24c-7 2.17-12.23-3.31-10.43-11.91S83.58 329.2 87 331.76c2.12-2.13 6.82-1.36 9 5.62s.21 24.9-12.83 21.86Z" style="fill:#ff8a00"/><g style="opacity:.30000000000000004"><path d="M83.17 359.24c-7 2.17-12.23-3.31-10.43-11.91S83.58 329.2 87 331.76c2.12-2.13 6.82-1.36 9 5.62s.21 24.9-12.83 21.86Z" style="fill:#fff"/></g><path d="M87.29 337a94.07 94.07 0 0 0-4.66 15.44 149.85 149.85 0 0 0-2.71 16.17c-1.26 10.5-1.48 9.92-1.41 20.48q0 4.4.11 8.77c.06 3 0 6 .27 9 .1 1.15 1.73.84 1.76-.21.1-5.26-.19-10.55-.24-15.81a34.14 34.14 0 0 1 .09-4.41 219.26 219.26 0 0 1 2.85-31.65c.5-2.91 1.05-5.82 1.73-8.7.72-3 1.59-6 2.39-9 .03-.08-.11-.25-.18-.08Z" style="fill:#ff8a00"/><path d="M87.29 337a94.07 94.07 0 0 0-4.66 15.44 149.85 149.85 0 0 0-2.71 16.17c-1.26 10.5-1.48 9.92-1.41 20.48q0 4.4.11 8.77c.06 3 0 6 .27 9 .1 1.15 1.73.84 1.76-.21.1-5.26-.19-10.55-.24-15.81a34.14 34.14 0 0 1 .09-4.41 219.26 219.26 0 0 1 2.85-31.65c.5-2.91 1.05-5.82 1.73-8.7.72-3 1.59-6 2.39-9 .03-.08-.11-.25-.18-.08Z" style="opacity:.30000000000000004"/><path d="M66.93 382.46c-.93 4.54-7.13 7.83-14.33 4.85s-21.38-21.68-14.9-23.74c-.35-3.39 19.25-6.18 28.94 5.77 7.05 8.66.29 13.12.29 13.12Z" style="fill:#ff8a00"/><g style="opacity:.7000000000000001"><path d="M66.93 382.46c-.93 4.54-7.13 7.83-14.33 4.85s-21.38-21.68-14.9-23.74c-.35-3.39 19.25-6.18 28.94 5.77 7.05 8.66.29 13.12.29 13.12Z" style="fill:#fff"/></g><path d="M77.21 389.21a32.89 32.89 0 0 0-2.92-3.21 88.2 88.2 0 0 0-6.61-5.91 89.5 89.5 0 0 0-15.17-9.76 79.39 79.39 0 0 0-9.16-4.16c-.09 0-.06.13 0 .16 2.61 1.24 5.24 2.44 7.77 3.85a88.56 88.56 0 0 1 7.61 4.82 110.06 110.06 0 0 1 13.4 11c1.18 1.14 2.31 2.33 3.5 3.46s2.58 2.24 3.77 3.46c.17.18.48.1.29-.16-.84-1.21-1.6-2.41-2.48-3.55Z" style="fill:#ff8a00"/><path d="M77.21 389.21a32.89 32.89 0 0 0-2.92-3.21 88.2 88.2 0 0 0-6.61-5.91 89.5 89.5 0 0 0-15.17-9.76 79.39 79.39 0 0 0-9.16-4.16c-.09 0-.06.13 0 .16 2.61 1.24 5.24 2.44 7.77 3.85a88.56 88.56 0 0 1 7.61 4.82 110.06 110.06 0 0 1 13.4 11c1.18 1.14 2.31 2.33 3.5 3.46s2.58 2.24 3.77 3.46c.17.18.48.1.29-.16-.84-1.21-1.6-2.41-2.48-3.55Z" style="opacity:.30000000000000004"/><path d="M106.75 377c-.12-2.56-13-2.42-19.06 2.44s-6.77 9.63-3 11.28c-.66 5.41 7.87 9 15.51 2.21s9.3-15.41 6.55-15.93Z" style="fill:#ff8a00"/><path d="M106.75 377c-.12-2.56-13-2.42-19.06 2.44s-6.77 9.63-3 11.28c-.66 5.41 7.87 9 15.51 2.21s9.3-15.41 6.55-15.93Z" style="fill:#fff;opacity:.30000000000000004"/><path d="M94 383.75a31.65 31.65 0 0 0-14.2 12.52c-.2.31.29.92.5.58a36.88 36.88 0 0 1 13.75-13s.05-.13-.05-.1Z" style="fill:#ff8a00"/><path d="M94 383.75a31.65 31.65 0 0 0-14.2 12.52c-.2.31.29.92.5.58a36.88 36.88 0 0 1 13.75-13s.05-.13-.05-.1Z" style="opacity:.30000000000000004"/><path d="M85.46 399c-4.36 4.3.46 9.61 7.55 12.24a25.35 25.35 0 0 0 18.33-.85c3.42-1.71 4.12-2.56 4.12-2.56a43.57 43.57 0 0 0-3.61-8.67A18.18 18.18 0 0 0 94 391c-9.09 1.12-9.83 4.89-8.54 8Z" style="fill:#ff8a00"/><g style="opacity:.5"><path d="M85.46 399c-4.36 4.3.46 9.61 7.55 12.24a25.35 25.35 0 0 0 18.33-.85c3.42-1.71 4.12-2.56 4.12-2.56a43.57 43.57 0 0 0-3.61-8.67A18.18 18.18 0 0 0 94 391c-9.09 1.12-9.83 4.89-8.54 8Z" style="fill:#fff"/></g><path d="M103.79 402.24a45.08 45.08 0 0 0-11.1-4.11c-3.8-.74-8.47-.77-11.55 1.94-1.19 1.05-2.77 3.32-1.8 4.93.09.16.57.46.68.14a15.3 15.3 0 0 1 1-3 6.08 6.08 0 0 1 2.37-2.24 14.12 14.12 0 0 1 8-1.36c4.32.41 8.39 2.15 12.37 3.78.07.03.07-.07.03-.08Z" style="fill:#ff8a00"/><path d="M103.79 402.24a45.08 45.08 0 0 0-11.1-4.11c-3.8-.74-8.47-.77-11.55 1.94-1.19 1.05-2.77 3.32-1.8 4.93.09.16.57.46.68.14a15.3 15.3 0 0 1 1-3 6.08 6.08 0 0 1 2.37-2.24 14.12 14.12 0 0 1 8-1.36c4.32.41 8.39 2.15 12.37 3.78.07.03.07-.07.03-.08Z" style="opacity:.30000000000000004"/><path d="M86.66 372c-1.09 3.84 3.81 7.42 9.9 5.37s12.42-4 17.61-4 8.49-3.48 7.42-5.79-2.33-7.77-15.56-9.33-19.2 3.11-22 6.76.43 7.62 2.63 6.99Z" style="fill:#ff8a00"/><g style="opacity:.7000000000000001"><path d="M86.66 372c-1.09 3.84 3.81 7.42 9.9 5.37s12.42-4 17.61-4 8.49-3.48 7.42-5.79-2.33-7.77-15.56-9.33-19.2 3.11-22 6.76.43 7.62 2.63 6.99Z" style="fill:#fff"/></g><path d="M111.25 363.92a16.11 16.11 0 0 0-4.27-.39 26.05 26.05 0 0 0-4.13.34 32.12 32.12 0 0 0-7.77 2.41c-4.65 2.07-9.27 4.76-12.29 9a29.39 29.39 0 0 0-3.89 7.29c-.18.49.78.77 1 .33a53.74 53.74 0 0 1 3.31-6.34 19.46 19.46 0 0 1 5.07-5.28 40.28 40.28 0 0 1 14-6.43 28.14 28.14 0 0 1 4.48-.66 42.12 42.12 0 0 1 4.49.17c.23-.04.14-.36 0-.44Z" style="fill:#ff8a00"/><path d="M111.25 363.92a16.11 16.11 0 0 0-4.27-.39 26.05 26.05 0 0 0-4.13.34 32.12 32.12 0 0 0-7.77 2.41c-4.65 2.07-9.27 4.76-12.29 9a29.39 29.39 0 0 0-3.89 7.29c-.18.49.78.77 1 .33a53.74 53.74 0 0 1 3.31-6.34 19.46 19.46 0 0 1 5.07-5.28 40.28 40.28 0 0 1 14-6.43 28.14 28.14 0 0 1 4.48-.66 42.12 42.12 0 0 1 4.49.17c.23-.04.14-.36 0-.44Z" style="opacity:.30000000000000004"/><path d="M75.81 393.61c-1-3.94-6-6.16-12.57-6.65A17.11 17.11 0 0 0 47 395.31c-3.42 5.85-4.84 10.5-2.77 11.27s10.87 2 16.54 2.48 12.75-.51 17.37-4.82 3.08-9.72-2.33-10.63Z" style="fill:#ff8a00"/><path d="M75.81 393.61c-1-3.94-6-6.16-12.57-6.65A17.11 17.11 0 0 0 47 395.31c-3.42 5.85-4.84 10.5-2.77 11.27s10.87 2 16.54 2.48 12.75-.51 17.37-4.82 3.08-9.72-2.33-10.63Z" style="fill:#fff;opacity:.30000000000000004"/><path d="M76.06 393.09a17.32 17.32 0 0 0-7.06-.33 31.06 31.06 0 0 0-6.67 1.54 42 42 0 0 0-6.6 3c-1.11.6-2.2 1.25-3.26 1.93a23.45 23.45 0 0 0-2.93 2s0 .16 0 .13c1.07-.48 2.08-1.16 3.1-1.73s2.22-1.23 3.36-1.81a46.47 46.47 0 0 1 6.58-2.82 31 31 0 0 1 6.93-1.49 43 43 0 0 1 6.62.17c.46.07.2-.5-.07-.59Z" style="fill:#ff8a00"/><path d="M76.06 393.09a17.32 17.32 0 0 0-7.06-.33 31.06 31.06 0 0 0-6.67 1.54 42 42 0 0 0-6.6 3c-1.11.6-2.2 1.25-3.26 1.93a23.45 23.45 0 0 0-2.93 2s0 .16 0 .13c1.07-.48 2.08-1.16 3.1-1.73s2.22-1.23 3.36-1.81a46.47 46.47 0 0 1 6.58-2.82 31 31 0 0 1 6.93-1.49 43 43 0 0 1 6.62.17c.46.07.2-.5-.07-.59Z" style="opacity:.30000000000000004"/><path style="fill:#263238" d="m409.24 404.14-2.89-1.23 2.73-.93.16 2.16z"/><path d="M381.66 410.93S414 394 414.51 396.22a3.3 3.3 0 0 1 .06 1.35s.06-.08.08-.12l-.37 4.23a9.9 9.9 0 0 1-5 2.46c0-.2-.11-1.45-.16-2.16a16.52 16.52 0 0 0-2.84 1.73c-2 1.53-3.27 4.08-5.36 7.08-1.53 2.19-4.4 3.34-8.71 4.2-4.64.93-8.8.27-10-.93a3.36 3.36 0 0 1-.55-3.13Z" style="fill:#263238"/><path d="M382.52 409.91c.3-.35 1.41-1.73 2.93-3.25 1.33-1.32 2.87-3 4.55-4.37a41.35 41.35 0 0 0 3.8-4.15 35.92 35.92 0 0 0 4.07-6.83c.46-1.17.79-2.55.51-6.86-.38-6-.62-7.37-.9-11.95l16.75-1.11c-.32 2.56-1 6.16-1.39 9.63-.45 4.39-1.87 4.88.08 9.17a13 13 0 0 1 1.54 3.83c.23 2.24-1.42 4.28-3.31 5.48-1.58 1-3.43 1.5-4.95 2.56a16.49 16.49 0 0 0-3.89 4.31c-1 1.5-1.84 3.25-3.35 4.35a14.4 14.4 0 0 1-5.29 2.18 28.45 28.45 0 0 1-7.24.78c-3.43-.07-6.09-1.19-3.91-3.77Z" style="fill:#ffbda7"/><path d="M395.09 402.5a6.22 6.22 0 0 0-5.17-.18c-2.34 2.08-4.26 3.93-5.62 5.22-1.65 1.56-3.1 3-2.94 4.67.25 2.63 10.48 2.85 16 0a7.12 7.12 0 0 0 3.82-3.76s-1.02-3.63-6.09-5.95Zm18.82-10.57c-1-1.65-1.34-2.5-1.34-2.5-1.92 1.2-5.08 6.36-3.22 11.27a7.55 7.55 0 0 0 4.8-3.69 4.78 4.78 0 0 0-.24-5.08Z" style="fill:#37474f"/><path d="M441 393.47c-.84 1.51.78 8.94.87 12.78.08 3.5.09 9.76 1.51 13.08 1.69 3.94 4.83 8.4 9.67 4.1 3-2.67 4.58-5.9 4.61-10.94 0-3.51-1.85-8.17-3.48-12.32-1.89-4.84-2.67-7.45-2.67-7.45Z" style="fill:#263238"/><path d="M450 369.1c1 8.07 1 12.69 1.39 17.89a68 68 0 0 0 1.27 8.07c.71 3.32 2.12 7.76 2.82 9.86 1 2.93 1.67 4.77.83 8.24a4 4 0 0 1-.31.79c-1.33 2.93-5.12 5.4-6.41 5.18a2.32 2.32 0 0 1-2.17.94L447 420a3.6 3.6 0 0 1-.44-.12 4.08 4.08 0 0 1-2.31-2.35 8.49 8.49 0 0 1-.26-.72 27 27 0 0 1-1.24-8.4c-.06-1.9-.35-5.2-.77-8.22s-2.7-11.3-4-15.84c-1-3.75-3.06-11.46-3.06-11.46Z" style="fill:#ffbda7"/><path d="M456.57 408.75c-3.22-1-12.51-.14-13.63 4.09.28 3.87.69 6.33 3.58 9.43 3.83 4.13 8-1 9.5-4.2a14.63 14.63 0 0 0 .55-9.32Z" style="fill:#37474f"/><path d="M438.52 262.43c3.25 7.94 6.33 16.68 6.83 33.5.67 22.17 1.71 30.18 1.93 32.85.37 4.55 2.33 8.68 4.44 21.75s1 37.07 1 37.07a15.66 15.66 0 0 1-8.1 3.77c-4.61.68-6.64-1.13-6.64-1.13s-8.78-35.38-11-43.2-8.81-33.57-8.81-33.57l-2.61 21.65s2.61 6.82 1.85 18.43-4.86 33.36-4.86 33.36-2.46 1.88-7.45 1.63-7-2-7-2-4.47-43.11-5.21-56.18-2.58-47.48 2.19-68Z" style="fill:#455a64"/><path d="M398.68 283.64c2.28 5.28 9.67 8.65 12.86 9.23l4.88 20.41-.85 21.84 2.61-21.65-5.57-24.9s-8.78-.13-13.93-4.93Zm29.75-4.34c.64 2.09 1.23 4.2 1.85 6.3s1.22 4.22 1.87 6.34a44.11 44.11 0 0 0-.81-6.59 68.84 68.84 0 0 0-1.57-6.45 59.06 59.06 0 0 0-2.26-6.25 30.62 30.62 0 0 0-3.18-5.84c.78 2.08 1.49 4.14 2.17 6.22s1.32 4.17 1.93 6.27Zm3.48-4.3c.79 1.24 1.54 2.5 2.29 3.76l2.24 3.84a17.63 17.63 0 0 0-1.26-4.33 29.15 29.15 0 0 0-2.08-4 32.86 32.86 0 0 0-2.65-3.64 23.31 23.31 0 0 0-3.18-3.18c.73 1.32 1.52 2.57 2.3 3.82s1.58 2.48 2.34 3.73Zm.12 59.88c-1.64-6.7-2.93-13.49-4.21-20.29s-2.5-13.59-3.82-20.42c.82 6.88 1.71 13.75 2.78 20.6s2.29 13.68 3.93 20.44 3.44 13.42 5.25 20.11 3.67 13.36 5.63 20q-2.16-10.17-4.57-20.28c-1.63-6.72-3.31-13.47-5.02-20.16ZM397.69 314l.32-18.09c-.67 6-1.12 12-1.41 18.06s-.51 12.05-.26 18.15c.48 6.06 1.21 12 2 18s1.63 12 2.61 17.92q-.66-9-1.53-18l-.86-9c-.28-3-.6-6-.8-9s-.14-6-.13-9 .03-6.04.06-9.04Z" style="fill:#37474f"/><path d="M340.58 193.05c-.86-.39-1.22.43-.81 1.2 1 1.81 3.47 2.27 4.49 3.17.23.25 2.83 4 2.72 4.88-.83-.61-3.29-2.75-4.16-3.32a32.2 32.2 0 0 0-3.27-1.45 3.32 3.32 0 0 0-1.23-.39c-.3 0-.73.56-.34 1.28.7 1.28 2.42 1.62 3.62 2.44.6.38 2.41 1.71 2.72 3.13-1.84-1-3.12-1.21-6.19-1.6-.36 0-.46.12-.5.35a1.24 1.24 0 0 0 .47 1.06c.74.63 2 .72 3.27 1.19a8.75 8.75 0 0 1 3.36 2.52 3.79 3.79 0 0 1 .77 1.35 17.94 17.94 0 0 1 .37 1.94 6.56 6.56 0 0 0 5.36 5 .85.85 0 0 0 .5 0 .92.92 0 0 0 .43-.75c.54-2.92-.28-5.88-.71-8.81-.14-1-1.35-8.19-1.44-8.45s-6.55-3.49-6.76-3.56c-.65-.23-1.85-.8-2.67-1.18Z" style="fill:#f0997a"/><path d="M394.49 219.55c-2.37.63-20.92 5.69-20.92 5.69s-12-9.77-14.38-12c-3.3-3.12-3.87-6.14-4.39-8.78-.76-3.79-1.26-4.09-2.66-5.53-.87-.89-2.74-3.28-2.81-3.37a3.45 3.45 0 0 0-1.09-.7l-1.24-.66c-1.2-.59-2-.88-3.18-1.47a6 6 0 0 0-1.15-.46.46.46 0 0 0-.26 0c-.16.06-.21.26-.21.43a3 3 0 0 0 1 2.13 10.18 10.18 0 0 0 2 1.32c.44.24.7.34 1.58.84a2.23 2.23 0 0 1 .82.88 26.89 26.89 0 0 1 2.7 5.18 9.69 9.69 0 0 1-3.82-3.41c-.86-1.37-2.23-.15-1.59 1.88.74 2.35 2.49 3 3.4 6.17s-2 5.33 1.12 8.39a32.1 32.1 0 0 1 5.05 5c2.52 3.39 10.37 13.91 12.19 15.77 4 4 4.57 3.82 15.63 1.29 15.61-3.56 18.4-4.54 18.4-4.54l7.48-16.36c-4.08-.07-5.68.18-13.67 2.31Z" style="fill:#ffbda7"/><path d="M408.27 216.42c-2 .09-2.54.16-10.4 2.14s-24.17 6.36-24.17 6.36l-4.08-3.34a10.11 10.11 0 0 1-2.85 5.11 18 18 0 0 1-5.43 3.79l3.44 4.39c3.2 4.07 4.88 4.83 6.12 5.32s3-.05 6.44-.71 23.89-5.48 23.89-5.48Z" style="fill:#37474f"/><path d="M350.32 203.05a11.17 11.17 0 0 1 2.26 2.07c.24.32.35-.61-.7-1.85s-2.13-1.39-2.32-1.89Z" style="fill:#f0997a"/><path d="M447.47 181.06a4.46 4.46 0 0 0 1.11-4.56c-1.1-3.42-4.82-4.58-8-3.81a8 8 0 0 0-3.09-2.89 5.19 5.19 0 0 0-4.15-.26 3.84 3.84 0 0 0-2.46 3.23 2.57 2.57 0 0 1-1.06-2 4.37 4.37 0 0 0-1.42 2.72 18.46 18.46 0 0 0-16.13.93c-3.59 1.88-7.27 4.57-8.68 8.55-1.48 4.15 0 9.32 2.94 12.45a31.46 31.46 0 0 0 4.29 3.6l6.26 4.66a36.48 36.48 0 0 1 3.62 2.93 18.74 18.74 0 0 1 3.4 4.43c.19.34.43.74.82.78a1.16 1.16 0 0 0 .65-.18 33.34 33.34 0 0 0 9.59-6.91 20.93 20.93 0 0 0 5.19-9.44 19.89 19.89 0 0 0 .46-2.86h1a2.31 2.31 0 0 0 1.72-.58c.17-.15 1.19-1.52.81-1.73 1.63.94 3.66 1 4.63.15-.48-.13-2.63-.52-2.88-2a3.71 3.71 0 0 0 1.38-7.26Z" style="fill:#263238"/><path d="M443.05 273.75c-1.8-7.61-4.12-12.42-4-14.08.57-7.21 3.13-16.56 4.05-20.71 2-9-2.16-17.48-4.16-19.42l-4.77-1.49c-1.56-.49-4.1-1-6.49-1.51-5.32-1.13-7.55-1.23-9.57-1.16-1 0-5.74.51-5.74.51-1.45.23-4.07.52-4.08.53a30.13 30.13 0 0 0-6.83 7.62c-2.6 4-4.16 7.35-5.19 16.17-1.3 11.24-2.89 23.81-3.44 31.68 8.96 6.39 37.68 8.05 50.22 1.86Z" style="fill:#f5f5f5"/><path d="M430.18 213.79c.06-1.83.29-8.62.29-8.62 0 .56 2.92 2.83 5.69.25s3.3-5.62 2.08-7.74c-1.35-2.35-4.93-2.66-6.78.69-1.15 1.15-2.84-.55-1.6-3.88.08-2.43-3.07-5.45-.73-9.3-6.3-5.36-14.15-6-18.75-2.9a40.74 40.74 0 0 0-3.25 13c-.67 8 1 12 3.37 13.67 1.59 1.1 3.11 1.5 6.1 1.61 0 0-.07 2-.09 3.19s-.55 1.45-1.81 1.71c-.85.18-3 .55-3 .55s-3.25 4.29 4.46 5.67c12.3 2.21 18-3.61 18-3.61s-.51-.21-2.42-.83c-1.74-.6-1.62-1.64-1.56-3.46Z" style="fill:#ffbda7"/><path d="M416.6 210.54c5.39.1 10.69-1 12.18-3.32a4.84 4.84 0 0 1-2.61 3.66c-3.24 1.42-9.63 1.54-9.63 1.54Z" style="fill:#f0997a"/><path d="m420.19 201.46-4.86.93a2.42 2.42 0 0 0 2.84 2 2.59 2.59 0 0 0 2.02-2.93Z" style="fill:#b16668"/><path d="M419.76 202.5a2.73 2.73 0 0 0-3 1.79 2.35 2.35 0 0 0 1.37.14 2.54 2.54 0 0 0 1.95-1.84c-.08-.03-.19-.07-.32-.09Z" style="fill:#f0997a"/><path d="m411.1 187.87 3.35-.42a1.62 1.62 0 0 0-1.82-1.49 1.78 1.78 0 0 0-1.53 1.91ZM424.74 188.91l-3.27-1a1.64 1.64 0 0 1 2.08-1.16 1.79 1.79 0 0 1 1.19 2.16ZM420.25 193.85a1.3 1.3 0 1 0 1.31-1.27 1.29 1.29 0 0 0-1.31 1.27ZM409.72 192.84a1.3 1.3 0 1 0 1.31-1.28 1.29 1.29 0 0 0-1.31 1.28Z" style="fill:#263238"/><path d="m428.31 190.43 7.88 5.61a3.45 3.45 0 0 0-2.69.26l-5.68-4Z" style="fill:#455a64"/><path d="M406 189.77c.48 1.07.18 2.92.62 4.14.38 2.41 4.45 4.21 6.93 2.12a5.14 5.14 0 0 0 1-1.25c.69-1.18.75-2.94 1.67-3 2.54 0-.37 6.34 6.48 6.73 3.32.24 4.32-2.83 4.93-5.32.23-.72.83-.79 1-1.69s-.55-1.26-1.27-1.36a21.33 21.33 0 0 0-6.7-.75c-2.13.33-2.92.91-4.07.76s-1.7-.91-3.58-1.76a18.68 18.68 0 0 0-6.68-1c-1.02.09-.76 1.85-.33 2.38Zm13 1.43c1.62-1.48 6.51-1 7.42.21.49.71-.15 2.92-.56 3.94 0 .12-.11.24-.18.37a3.24 3.24 0 0 1-3.56 1.74 3.8 3.8 0 0 1-2.69-1.43 5.42 5.42 0 0 1-.43-4.83Zm-8.81-2.62c3.73.81 5.11 1.86 3.57 5.52-.59 1.76-3.29 2.42-5 1.27a4.22 4.22 0 0 1-1.59-3.25c-.3-3.12-.04-3.9 3.06-3.54Z" style="fill:#455a64"/><path d="m411.74 197.08 4.18 2.64 1.54-6.74a2.08 2.08 0 0 0-.42-.92Z" style="fill:#f0997a"/><path d="M388.45 288.15a1.05 1.05 0 0 1-.11-.07L336.22 254a3.79 3.79 0 0 1-1.56-3.55 12.08 12.08 0 0 1 5.69-9.38 3.93 3.93 0 0 1 3.91-.33l55.3 28.89.1.06.2.1a10.67 10.67 0 0 1 3.74 14.76 11 11 0 0 1-15 3.76Z" style="fill:#ff8a00"/><path d="M340.35 241c3.08-1.7 5.53-.26 5.47 3.22a12.12 12.12 0 0 1-5.69 9.38c-3.08 1.7-5.53.26-5.47-3.22a12.08 12.08 0 0 1 5.69-9.38Z" style="opacity:.25"/><path d="m393.62 274-48.51-26.44a10.1 10.1 0 0 0 .71-3.32 3.79 3.79 0 0 0-1.54-3.54l55.28 28.88.1.06.2.1a10.67 10.67 0 0 1 3.74 14.76c1-3.31-3.6-6.99-9.98-10.5Z" style="opacity:.1"/><path d="M318.41 238.33a7.29 7.29 0 0 1 3.44-5.67 2.38 2.38 0 0 1 2.36-.2l18.46 10.85a2.29 2.29 0 0 1 .94 2.15 7.29 7.29 0 0 1-3.44 5.67 2.38 2.38 0 0 1-2.36.2l-18.46-10.85a2.28 2.28 0 0 1-.94-2.15Z" style="fill:#e0e0e0"/><path d="m334.36 238.42-6.86-4q-1.49 4.62-3.3 8.94l6.75 4c1.25-2.95 2.39-5.92 3.41-8.94Z" style="opacity:.25"/><path d="m335.62 164.11-11.72-6.7c-8.86-5.12-21.13-4.38-34.68 3.43-27.09 15.65-49.05 53.68-49.05 85 0 15.64 5.5 26.62 14.38 31.75l11.68 6.68A25.2 25.2 0 0 0 279 287.5c6.59 0 14-2.15 21.9-6.7 27.09-15.63 49-53.67 49-85 .1-15.58-5.42-26.57-14.28-31.69ZM273 208c8.6-14.88 19.9-26.87 31.84-33.76 6.25-3.62 12.34-5.57 17.62-5.65a19.16 19.16 0 0 1 2.7.12c3.73 4.68 5.77 11.8 5.77 20.86 0 13.78-4.73 29.57-13.32 44.45s-19.9 26.87-31.83 33.75c-6.42 3.71-12.64 5.66-18 5.66a19.39 19.39 0 0 1-2.31-.13 19.7 19.7 0 0 1-1.85-2.77c-2.55-4.54-3.93-10.66-3.93-18.09-.04-13.74 4.69-29.52 13.31-44.44Z" style="fill:#455a64"/><path d="m253 200.22 18.43 10.58c.5-.92 1-1.84 1.55-2.76a112.31 112.31 0 0 1 8.87-13.15l-18.48-10.6A117.63 117.63 0 0 0 253 200.22Zm22.32-29q-3.42 3.15-6.61 6.7l18.58 10.66a85.64 85.64 0 0 1 6.81-6.58Z" style="fill:#fff;opacity:.1"/><path d="m266.17 284.2-11.62-6.64c-8.88-5.13-14.37-16.11-14.37-31.75V244l11.68 6.68v1.8c0 15.6 5.47 26.58 14.31 31.72Z" style="fill:#37474f"/><path d="M337 175.78a16.49 16.49 0 0 0-11.87-7c3.73 4.68 5.77 11.8 5.77 20.86 0 13.78-4.73 29.57-13.32 44.45s-19.9 26.87-31.83 33.75c-6.42 3.71-12.64 5.66-18 5.66a19.39 19.39 0 0 1-2.31-.13 16.45 16.45 0 0 0 12.56 6.31h1c5.37 0 11.6-1.95 18-5.65 11.93-6.89 23.23-18.88 31.83-33.76s13.32-30.67 13.32-44.45c.02-8.53-1.8-15.36-5.15-20.04Z" style="fill:#263238"/><path d="M300.91 167.53c-27.09 15.64-49.05 53.68-49.05 85s22 43.95 49.05 28.31 49-53.67 49-85-21.91-43.95-49-28.31ZM297 274.06c-6.41 3.7-12.64 5.65-18 5.65a16.87 16.87 0 0 1-15.43-9.14c-2.56-4.54-3.93-10.66-3.93-18.09 0-13.78 4.73-29.56 13.33-44.44s19.89-26.87 31.83-33.76c6.25-3.62 12.34-5.57 17.62-5.65h.39c12.12 0 19.35 10.18 19.35 27.23 0 13.78-4.73 29.57-13.32 44.45S309 267.17 297 274.06Z" style="fill:#37474f"/><path d="M263.76 208.64a113.49 113.49 0 0 0-10 27.87 79 79 0 0 0-1.67 14.7 54.71 54.71 0 0 0 1.61 14.65 32.6 32.6 0 0 0 6.5 13.08 23.58 23.58 0 0 0 12.32 7.6 30.81 30.81 0 0 0 14.63-.22 52.61 52.61 0 0 0 13.72-5.52 52.52 52.52 0 0 1-13.65 5.79 31.09 31.09 0 0 1-14.79.33 24 24 0 0 1-12.6-7.67 32.81 32.81 0 0 1-6.65-13.25 55.52 55.52 0 0 1-1.54-14.8 80.55 80.55 0 0 1 1.78-14.77 102.33 102.33 0 0 1 4.18-14.27 121.07 121.07 0 0 1 6.16-13.52Z" style="fill:#455a64"/><path d="M322.82 168.62a18.67 18.67 0 0 1 7.19 1.32 16.81 16.81 0 0 1 6 4.26 22.3 22.3 0 0 1 3.86 6.3 32.73 32.73 0 0 1 2 7.12 56.91 56.91 0 0 1 .41 14.75 80.28 80.28 0 0 1-2.74 14.5 95.06 95.06 0 0 1-5.06 13.87 113 113 0 0 1-6.93 13 101.46 101.46 0 0 1-18.81 22.71 71.22 71.22 0 0 1-12.07 8.59 41.45 41.45 0 0 1-14 5.05 22.73 22.73 0 0 1-7.54-.08 16.94 16.94 0 0 1-6.94-3.06 16.71 16.71 0 0 1-2.79-2.59 20.11 20.11 0 0 1-2.19-3.09 27.27 27.27 0 0 1-2.79-6.95 49.22 49.22 0 0 1-1.24-14.75 76.23 76.23 0 0 1 2.34-14.57 94.84 94.84 0 0 1 4.77-13.92A108.08 108.08 0 0 1 273 208a106.32 106.32 0 0 0-10.72 27.18 75 75 0 0 0-2 14.44 48 48 0 0 0 1.41 14.39 26.25 26.25 0 0 0 2.75 6.6 17.69 17.69 0 0 0 4.66 5.26 15.5 15.5 0 0 0 6.4 2.78 21.23 21.23 0 0 0 7.07 0 40.46 40.46 0 0 0 13.43-4.86 70.88 70.88 0 0 0 11.76-8.47A100 100 0 0 0 326.38 243a110 110 0 0 0 12.05-26.49 80.63 80.63 0 0 0 2.91-14.27 56.53 56.53 0 0 0-.19-14.53 32.68 32.68 0 0 0-1.83-7 22 22 0 0 0-3.63-6.25 16.6 16.6 0 0 0-5.77-4.32 18.54 18.54 0 0 0-7.1-1.52Z" style="fill:#455a64"/><path d="M328.46 169.45a18.62 18.62 0 0 0-5.64-.83h-.39c-5.28.08-11.37 2-17.62 5.65-11.94 6.9-23.24 18.89-31.81 33.73s-13.32 30.66-13.32 44.44c0 7.43 1.38 13.55 3.93 18.09a18.45 18.45 0 0 0 4.27 5.26 18.52 18.52 0 0 0 5.64.84c5.38 0 11.6-1.95 18-5.66 11.93-6.88 23.24-18.88 31.83-33.76s13.32-30.67 13.32-44.45c-.02-10.76-2.95-18.87-8.21-23.31Z" style="fill:#fff;opacity:.30000000000000004"/><path d="M439.36 220.17c6.41 2.6 7.88 8.87 4.33 15.9-3.12 6.16-15.45 21.3-17.4 23.77s-3.54 3.3-8.45 5.21-17.9 5.49-21.69 6.62-6.23 3.26-9.84 4.83-8.53 1.35-11 .88a5.85 5.85 0 0 1-3.1-2.31c-1.72-.49-1.94-1.2-1.81-1.8-1.53-.25-2.18-.66-1.59-1.71 1.24-2.19 5.37-1.77 9.15-2.52 3.62-.73 6.48-2.23 5.58-2.72-1.83-1-4.88.12-7.63-1.52-1.62-1-1.31-2.39-.53-2.36 1.44.07 4.29-.81 7.83-.89 3.22-.07 7.23 1.28 9.59.37 5.55-2.12 22.21-10.3 22.21-10.3L429 231s3.9-8.57 10.36-10.83Z" style="fill:#ffbda7"/><path d="m409.2 254.44 5.61-3.09 13.42-20.51s5.12-10 10.73-11.31c5 2.1 6.14 4.26 6.79 6.69.41 1.52.74 6.43-3.71 13.75s-13.56 17.59-15.52 20.1-2.2 2.74-5.78 4.07-6.23 2.08-6.23 2.08c-3.51-3.16-5.51-6.96-5.31-11.78Z" style="fill:#37474f"/><path d="m247.56 421.46 5.81-11.46 11.71 6.85-14.43 17s-7.15-.67-8.3-4.4 3.24-6.75 5.21-7.99Z" style="fill:#ffa8a7"/><path d="M239.31 426a6.08 6.08 0 0 0-1.62 1.77c-.47.7-.32 4.09-.77 5.67s-.8 2-1.55 4c-.84 2.19-2.38 4.18-.64 9.8s4.54 8.3 6.89 9.67a6.22 6.22 0 0 0 2.84.69s3.08-1.17 2.61-3-7.76-28.6-7.76-28.6Z" style="fill:#263238"/><path d="M252.85 432.13a6.79 6.79 0 0 1-1.22 1.94 15.21 15.21 0 0 0-2 5.61c-1.82 8.89 1.71 13.41-3.07 16.75-1.39.87-4.26.63-8.64-5-2.23-2.86-3.5-8.75-2.63-11.42s2.06-4.4 2.62-6.45.27-5.87 1.4-7.63a8.31 8.31 0 0 1 2.78-2.39c.85-.52 2.71-1.19 3.57-1.69s1.34-1.05 1.9-.42l-1 1.23c-1.56 2.16-1.12 2.48-1.09 3.63a17.76 17.76 0 0 1-.58 3.66c1.11-1.4 1.57-2.62 2.78-2.41s1.35.16 3.09 1.79 2.17 2.28 2.09 2.8Z" style="fill:#455a64"/><path d="M237.92 451.46c-2.23-2.86-3.5-8.75-2.63-11.42a24.8 24.8 0 0 1 1-2.58c0 .18-.09.36-.11.52-.06.34-.1.69-.13 1a7.9 7.9 0 0 0 .44 4c.5 1.11 1.66 3.89 3.16 3.95.85 0 1.56-.79 1.89-1.74.13-.4.36-1.48.36-1.48a13.25 13.25 0 0 1 3.89 1.59c2.17 1.43 2.09 1.75 2.09 1.75a5.74 5.74 0 0 0-.07 1.91 4.7 4.7 0 0 0 .81 1.89 2.86 2.86 0 0 0 .55.45 5.78 5.78 0 0 1-2.63 5.06c-1.37.94-4.24.7-8.62-4.9Z" style="fill:#37474f"/><path d="M249.63 439.68a30.21 30.21 0 0 0-.56 7.11c-.81 2.28-1.53 2.21-1.63 1s1.48-6.08 2.65-10.12c-.18.7-.33 1.33-.46 2.01ZM244.22 425.43a5 5 0 0 1 .87-3.26l.57-.29c.94-.53 1.34-1.05 1.9-.42l-1 1.23c-1.56 2.16-1.12 2.48-1.09 3.63a17.76 17.76 0 0 1-.58 3.66c-.9 3.86-1.73 5.15-2.16 8.8s.31 6.1-.21 6.3-1.55-.21-1.74-3.13 1.1-7.83 2-10.16 1.62-4.79 1.44-6.36Z" style="fill:#37474f"/><path d="M241.66 444a.44.44 0 0 0 .19.1 8.72 8.72 0 0 1 5.83 3.41.36.36 0 0 0 .55-.47 9.36 9.36 0 0 0-6.23-3.65.36.36 0 0 0-.43.28.36.36 0 0 0 .09.33ZM242.12 441a.45.45 0 0 0 .19.11 9.8 9.8 0 0 1 6.14 3.72.36.36 0 0 0 .52.05.37.37 0 0 0 0-.53 10.48 10.48 0 0 0-6.54-4 .36.36 0 0 0-.44.28.37.37 0 0 0 .13.37ZM242.06 437.65a.43.43 0 0 0 .2.11 11.09 11.09 0 0 1 6.86 4.19.41.41 0 0 0 .58 0 .4.4 0 0 0 .05-.58 11.88 11.88 0 0 0-7.3-4.45.42.42 0 0 0-.5.3.45.45 0 0 0 .11.43ZM242.55 434.79a.4.4 0 0 0 .19.11 10.77 10.77 0 0 1 6.71 4.09.41.41 0 0 0 .62-.53 11.62 11.62 0 0 0-7.15-4.35.4.4 0 0 0-.48.3.41.41 0 0 0 .11.38ZM243.59 432a.49.49 0 0 0 .2.11 10.8 10.8 0 0 1 6.71 4.09.4.4 0 1 0 .62-.52 11.66 11.66 0 0 0-7.15-4.36.41.41 0 0 0-.48.31.41.41 0 0 0 .1.37Z" style="fill:#ebebeb"/><path style="fill:#ffa8a7" d="m250.72 422.38 7.58 6.19 4.28 2.69-4.89 9.25-13.79-6.6 6.82-11.53z"/><path d="M232.6 381.54s30.26-5.11 42.06-5c12 .08 13.16 9.12 10.15 14.66C279 401.77 259 424.26 259 424.26s-6.74-3.09-8.81-8.92l4.58-10.49-14.4 4.61-7.37-4.94-.6-3.75Z" style="fill:#ff8a00"/><path d="M232.6 381.54s30.26-5.11 42.06-5c12 .08 13.16 9.12 10.15 14.66C279 401.77 259 424.26 259 424.26s-6.74-3.09-8.81-8.92l4.58-10.49-14.4 4.61-7.37-4.94-.6-3.75Z" style="opacity:.4"/><path d="M232.6 381.54 187.53 389s-.47 11.43 4 21.67a23.35 23.35 0 0 0 17.86 13.64 133.06 133.06 0 0 0 14.44 1.17 36.18 36.18 0 0 0 7.55 4.44c3.8 1.51 20.43 8.48 20.43 8.48s4.67-4 4.2-12.19l-15.7-16.7c-3.55-4.34-4.8-5.73-6.77-6.71 1.03-13.8.09-15.45-.94-21.26Z" style="fill:#ff8a00"/><path d="M232.6 381.54 187.53 389s-.47 11.43 4 21.67a23.35 23.35 0 0 0 17.86 13.64 133.06 133.06 0 0 0 14.44 1.17 36.18 36.18 0 0 0 7.55 4.44c3.8 1.51 20.43 8.48 20.43 8.48s4.67-4 4.2-12.19l-15.7-16.7c-3.55-4.34-4.8-5.73-6.77-6.71 1.03-13.8.09-15.45-.94-21.26Z" style="opacity:.30000000000000004"/><g style="opacity:.30000000000000004"><path d="M257.14 395.91a104.27 104.27 0 0 0-6.08 10.09l3.68-1.17c4.15-9.88 5-12.76 11.62-17.39 0 .02-4.75 1.81-9.22 8.47ZM220.34 419.89s2.52 3.65 10.66 7.1c4.57 1.94 18.73 7.48 23 8.49a11.51 11.51 0 0 1-2.2 2.87s-16.62-7-20.42-8.48a21.36 21.36 0 0 1-2.42-1.14c-.35-.18-.69-.37-1-.56-.85-.49-1.62-1-2.27-1.42s-1.15-.8-1.47-1l-.32-.24c-3.61-3.19-3.56-5.62-3.56-5.62ZM238 406.66c1.6 1.88 2.37 2.8 2.37 2.8l2.3-.76s-4.08-4.45-6.72-6.78a8.31 8.31 0 0 0-1.51-1.19c1.33-3.49 1.28-9.22 1.28-9.22a18.4 18.4 0 0 1-3.48 8.38 15.32 15.32 0 0 0-6.63-.08c-4.62.77-18 3.05-18 3.05s12.83-1.15 19.51-1.41 9.24 3.32 10.88 5.21Z"/></g><path d="M280 436.08c3.25 1.28 5.25 2.57 6.75 4.52s2 3.95.53 6.32-4 5.16-7.14 5a16.92 16.92 0 0 1-7.9-2.52Z" style="fill:#263238"/><path d="M254 438.82c0 1 4 2.91 8.31 4.95 4.56 2.17 5.69 3.59 9.41 5.42 4.26 2.1 5.87 2.22 9.18 1.3s7.37-5.65 4.53-10c-2.31-3.55-5.31-4.52-9.85-5.72a83.19 83.19 0 0 1-10.58-3.43c-3.29-1.27-6-3.56-6.67-2.77.46.23 3.9 2.35 3.25 2.93-.16.29-.65.2-1.49-.15a1.47 1.47 0 0 0-1.18-.06 2.24 2.24 0 0 0-.85 1 23.43 23.43 0 0 0-1 2.6c-.26.6-.15.25-.39.86a6.65 6.65 0 0 0-.7 2.33c0 .37.31.49.6.68s.7.4 1 .61c.11.09.3.36.24.51s-.7.12-.94 0-.66-.2-1-.32-1.09-.39-1.87-.74Z" style="fill:#455a64"/><path d="M270.29 448.49c.61.31 4.47 2.1 5.69 1s-1.79-3-1.79-3-.47-2.91 3-7.2c.61.47 3.15.45 3.12-1.05s-4.29-3.33-4.35-3.35c4.35 1.16 7.22 2.17 9.46 5.61 2.84 4.34-1.23 9.07-4.53 10s-4.92.8-9.18-1.3c-.39-.2-1.05-.49-1.42-.71Z" style="fill:#37474f"/><path d="M274.61 446.2c1.61.54.5 2-1.86 1.53-3.54-.72-6.47-2.72-10.41-4-4.26-2-8.59-3.92-8.31-5 .76.28 2.39 1 2.39 1 .32.14 1.14.44 1.14.44 3.23 1.4 6.79 3.64 10.28 4.58 3.08.84 5.16.91 6.77 1.45ZM277 439.84c-1.47-.85-1.73-1.58-4.62-2.91s-7.78-4.17-10.8-5.93a36.72 36.72 0 0 1-3.28-2.43c.5-.57 2.34 0 4.18 1.12s3 1.9 4.8 2.85c3.55 2.14 7.59 3.58 9.62 4.88s1.57 3.27.1 2.42Z" style="fill:#37474f"/><path d="M277.22 439.45a.38.38 0 0 1-.09.13 13 13 0 0 0-2.76 7.14.43.43 0 0 1-.4.4.36.36 0 0 1-.33-.41 13.58 13.58 0 0 1 3-7.69.33.33 0 0 1 .51 0 .41.41 0 0 1 .07.43ZM274.36 437.36a.42.42 0 0 1-.08.12 17.71 17.71 0 0 0-3.41 8.43.43.43 0 0 1-.42.38.35.35 0 0 1-.31-.42 18.19 18.19 0 0 1 3.64-8.93.35.35 0 0 1 .52 0 .41.41 0 0 1 .06.42ZM268.06 445.61a.42.42 0 0 1-.34.25.35.35 0 0 1-.36-.38c.17-5.17 3.5-10 3.66-10.19a.33.33 0 0 1 .51 0 .43.43 0 0 1 0 .57s-3.25 4.78-3.4 9.59a.53.53 0 0 1-.07.16ZM265.41 443.92a.4.4 0 0 1-.33.25.33.33 0 0 1-.36-.37 15.26 15.26 0 0 1 3.85-9.67.35.35 0 0 1 .52 0 .46.46 0 0 1-.07.58 14.6 14.6 0 0 0-3.57 9 .39.39 0 0 1-.04.21Z" style="fill:#f0f0f0"/><path d="M262 442.47a.39.39 0 0 1-.32.25.34.34 0 0 1-.37-.37c0-5.37 3.8-9.53 4-9.7a.34.34 0 0 1 .52 0 .42.42 0 0 1-.06.57s-3.68 4.06-3.7 9a.41.41 0 0 1-.07.25Z" style="fill:#ebebeb"/><path d="M221.87 333.56c7.54 0 10.09 4.43 10.76 8.56.77 4.75 1.54 16.23 1.54 16.23l10.83 8.76-6.61 8.79s-8.34-4.32-11.64-6.3c-4-2.41-3.87-4.13-4.3-10.66s-.96-21.64-.58-25.38Z" style="fill:#ffa8a7"/><path d="M187.11 396.74c-.46-8.92.14-19 1.83-33.14.55-4.52 2.53-23.2 3.72-26.58l9-2.33s7.78-.81 17.4-1.09h2.83c.6.63 9.19 7.68 11.86 15.34 1.52 4.36 2 11.71-3.15 15.52 0 0-.76 7.63-.77 7.69s4.69 7.29 5.47 9c-1.18 7.53-10.19 14.19-23 16.85-15.3 3.14-24.24-.68-25.19-1.26Z" style="fill:#ff8a00"/><path d="M220.31 368.53s-3.68 4.45-10.89 3.57a13.34 13.34 0 0 1-10.23-6.76s1 7.75 9.9 8.84a10.75 10.75 0 0 0 11.22-5.65Z" style="opacity:.30000000000000004"/><path d="m212.67 405.32.05.85a2.43 2.43 0 0 0 1.34 2l23.84 11.73a2.38 2.38 0 0 0 1.23.24 2.35 2.35 0 0 0 1.18-.4l40.55-27.07a2.41 2.41 0 0 0 1.07-2.17v-.59L239 418.54Z" style="fill:#ebebeb"/><path d="M281.89 389.91 256 377.12a1.45 1.45 0 0 0-1.44.09l-41.72 27.86a.32.32 0 0 0 0 .55L239 418.54Z" style="fill:#fafafa"/><path style="fill:#e0e0e0" d="m238.65 416.43-13.98-6.89 37.92-25.32 14.05 6.85-37.99 25.36zM230.62 395.24l.26.13 6.85 3.38 11.31-7.55.23-.15-7.11-3.51-11.54 7.7z"/><path style="fill:#e6e6e6" d="m230.88 395.37 6.85 3.38 11.31-7.55-6.86-3.38-11.3 7.55z"/><path d="m239 418.54.11 1.6a2.35 2.35 0 0 0 1.18-.4l40.55-27.07a2.41 2.41 0 0 0 1.07-2.17v-.59Z" style="fill:#ebebeb"/><g style="mix-blend-mode:multiply;opacity:.5"><path d="m239 418.54.11 1.6a2.35 2.35 0 0 0 1.18-.4l40.55-27.07a2.41 2.41 0 0 0 1.07-2.17v-.59Z" style="fill:#e0e0e0"/></g><path d="M270.36 384.91c-1.32-1.9-2.95-3.59-4.13-5.58a34 34 0 0 0-3.86-3.52c-4-2.93-5-2.87-10-4.56a21.93 21.93 0 0 1-7.36-4.14l-6.61 8.79c.74.43 1.45.87 2.14 1.31 1.12.72 2.56 3.28 5.12 4.29 3.39 1.34 7.41.52 7.78 1.52a6.66 6.66 0 0 0 .23 1.85 6.48 6.48 0 0 0-2-.55c-.63 0-1.54.71-1.36 1.15s.57.61 1 1 1.35 1.13 1.5 1.22a6.09 6.09 0 0 0 3.18.56 1.41 1.41 0 0 0 1.06-.9 5.06 5.06 0 0 0 .73.27 1.9 1.9 0 0 0 1.39-.06 1.15 1.15 0 0 0 .46-.66 5.61 5.61 0 0 0 1.68-.31c.76-.41.79-1.35.94-2.09a9.2 9.2 0 0 0 .14-2.82c2.26 1.43 4 4 6.75 4.58 1 .13 2.28-.26 1.22-1.35ZM178.19 376.14c1.18-11 2.32-21 4.05-29 .95-4.45 4.06-9.2 10.42-10.1 6.15 3.8 4.44 16.63 3.81 19.76l-3.41 19.38s3.84 3 9.46 6.54c4.74 3 7.86 5.48 13.25 5.76s7.54 0 10.41 1c1.53.55 5 1.82 6.21 2.33s3.4 2.46 5.41 3.75-.3 2.26-1.73 1.94a18 18 0 0 1-4.34-1.76 23.24 23.24 0 0 0-3.7-1.14 21.31 21.31 0 0 1 1.05 4.16c0 .77.28 1.69-.35 2.3a6 6 0 0 1-1.56.77 1.18 1.18 0 0 1-.27.76 1.92 1.92 0 0 1-1.35.44 5.41 5.41 0 0 1-.79-.06 1.38 1.38 0 0 1-.79 1.16 6.06 6.06 0 0 1-3.27.33c-.17-.05-1.43-.63-1.8-.79a3.28 3.28 0 0 1-1.26-.68c-.29-.38.4-1.36 1-1.5a6.67 6.67 0 0 1 2.1 0 6.87 6.87 0 0 1-.73-1.76c-.63-.87-4.68.33-8.36-.06-2.79-.3-4.95-2.78-6.23-3.26-8.16-3-12.86-4.26-21.19-8.56-7.58-3.96-6.66-5.99-6.04-11.71Z" style="fill:#ffa8a7"/><path d="M228.76 394.76c-.49-1-1.22-2.21-2-2.44a9.21 9.21 0 0 1 1.3 2.24ZM227.17 401.79a9.16 9.16 0 0 0-.08-2.28 20.75 20.75 0 0 0-.44-2.22 9.91 9.91 0 0 0-.76-2.16 4.23 4.23 0 0 0-1.48-1.73 3.45 3.45 0 0 1 .68.88 7 7 0 0 1 .49 1 15.26 15.26 0 0 1 .64 2.12c.19.73.36 1.46.54 2.18a20.66 20.66 0 0 1 .41 2.21ZM224.76 402.93a10.41 10.41 0 0 0-.14-2.23 20.17 20.17 0 0 0-.48-2.18 15.55 15.55 0 0 0-.75-2.11 4.27 4.27 0 0 0-1.27-1.83 2.63 2.63 0 0 1 .57.93c.14.33.27.68.39 1 .23.7.44 1.4.64 2.11.4 1.43.77 2.85 1.04 4.31ZM218.66 401.45a4 4 0 0 1 .93.07c.3.05.52.19.9.28l-.17-.23a1 1 0 0 0 .09.44 1.37 1.37 0 0 0 .89.7 3.13 3.13 0 0 1-.41-.55 1.19 1.19 0 0 1-.12-.29.76.76 0 0 1 0-.25v-.17l-.18-.06a2.77 2.77 0 0 0-.88-.13 2 2 0 0 0-1.05.19Z" style="fill:#f28f8f"/><path d="M239.72 418.85a2.85 2.85 0 0 0 2.45-.35l40.38-27a2.87 2.87 0 0 0 1.26-2.08l2.8-27.7a2.44 2.44 0 0 0 0-.47 2.84 2.84 0 0 0-1-2l-42 28a2.15 2.15 0 0 0-.93 1.54Z" style="fill:#ff8a00"/><g style="opacity:.7000000000000001"><path d="M239.72 418.85a2.85 2.85 0 0 0 2.45-.35l40.38-27a2.87 2.87 0 0 0 1.26-2.08l2.8-27.7a2.44 2.44 0 0 0 0-.47 2.84 2.84 0 0 0-1-2l-42 28a2.15 2.15 0 0 0-.93 1.54Z" style="fill:#fff"/></g><path d="m239 418.54.3.15a2.78 2.78 0 0 0 .4.16l3-30a2.15 2.15 0 0 1 .93-1.54l42-28a3 3 0 0 0-.61-.41L243 387a2.07 2.07 0 0 0-.93 1.54Z" style="fill:#fafafa"/><path d="M261.71 392c.18-1.85 1.92-4.41 3.87-5.71s3.38-.86 3.19 1a9.28 9.28 0 0 1-3.87 5.71c-1.9 1.32-3.38.88-3.19-1Z" style="fill:#ff8a00"/><path d="M197.34 302.17c-.05.21-1.26.83-1.48 1a6.92 6.92 0 0 0-1.14 1.28 9.41 9.41 0 0 0-1.31 3.44 61.69 61.69 0 0 0-.57 6.22 40.36 40.36 0 0 1-1.21 5.94 20.55 20.55 0 0 0-.84 5.26 6.89 6.89 0 0 0 1.86 4.86 11.57 11.57 0 0 1 .14-5.33 10.62 10.62 0 0 0 .59 3.27 7.74 7.74 0 0 0 3.54 3.74 20 20 0 0 0 5 1.71 35.8 35.8 0 0 0 8.49 1 51.91 51.91 0 0 0 5.28-.3 15.12 15.12 0 0 0 6.51-1.86 6.38 6.38 0 0 0 3.24-5.63 6.55 6.55 0 0 1 .82 3.65 7.18 7.18 0 0 0 1.85-5 12.64 12.64 0 0 0-1.36-5.27 23.79 23.79 0 0 1-1.45-3.17 4.42 4.42 0 0 1-.06-3.1c.32-.64.84-1.22 1.18-1.88a11.72 11.72 0 0 0 1.46-5.81c-.2-4.17-2.53-9.66-10.09-11.54-6.35-1.53-18.55-.65-20.45 7.52Z" style="fill:#263238"/><path d="M200.26 323.67a4.8 4.8 0 0 1-4.21-1.78c-2.15-2.53-2.25-5-1.13-6.62.92-1.32 3.08-2.09 4.53-1.11s1.57 1.85 2.13 3 2.13.34 1.81-4.14c3.15-1.29 2.87-6.41 4.63-8.41 2.76-3.14 7-2.11 8.4-1.28a5.69 5.69 0 0 1 5.89-.12c2 1.18 3.32 3.54 3.71 11.48s-1.24 13.4-3.21 15a9.33 9.33 0 0 1-6.69 1.52l-.12 3s8 8.9-2.63 7.67a16.8 16.8 0 0 1-11.76-7.23l.46-12.22s-.21 1.01-1.81 1.24Z" style="fill:#ffa8a7"/><path d="M217.78 323a2.37 2.37 0 0 1-2.87 1.71 2.33 2.33 0 0 1-1.75-2.82Z" style="fill:#b16668"/><path d="M213.12 322.64a2.34 2.34 0 0 0 1.79 2.06 2.36 2.36 0 1 0-1.79-2.06Z" style="fill:#f28f8f"/><path d="m224 309.52-3-1.13a1.57 1.57 0 0 1 2-1 1.66 1.66 0 0 1 1 2.13ZM212.66 308.14l-3.12 1.49a1.62 1.62 0 0 1 .74-2.26 1.83 1.83 0 0 1 2.38.77Z" style="fill:#263238"/><path d="m227.79 310.52-.61-.07a18.44 18.44 0 0 0-6 .19c-1.91.56-2.58 1.18-3.65 1.19s-1.88-.63-4-1.19a21.49 21.49 0 0 0-6.47-.18l-.64.07a1 1 0 0 0-.7 1 2.37 2.37 0 0 0 .65 1.19 1.44 1.44 0 0 1 .22.48 21.4 21.4 0 0 0 .87 3.29 4.54 4.54 0 0 0 .86 1.18 3.65 3.65 0 0 0 .43.35l.25.15a3.76 3.76 0 0 0 .73.33h.12l.2.05.2.05a6.12 6.12 0 0 0 .64.1H211.51c2.66 0 3.74-1.2 4.36-2.45s.42-3 1.65-3h.22c.91.2.84 1.81 1.44 3a4.75 4.75 0 0 0 .9 1.27 2 2 0 0 0 .21.2l.11.09.12.09.1.07.12.08.09.05h.07a4 4 0 0 0 1.06.4h.1a6.32 6.32 0 0 0 1.3.12 3.61 3.61 0 0 0 3.69-2.28 20.28 20.28 0 0 0 .68-3.29 1 1 0 0 1 .21-.43 2.07 2.07 0 0 0 .53-1.21 1 1 0 0 0-.68-.89Zm-12.62 4.65a3.54 3.54 0 0 1-.88 1.74 3.74 3.74 0 0 1-2.87 1 3.36 3.36 0 0 1-2.81-1.27.94.94 0 0 1-.09-.12l-.09-.12-.07-.12-.06-.1v-.09a.25.25 0 0 1 0-.07l-.06-.13a2.75 2.75 0 0 1-.15-.36c0-.08 0-.15-.08-.22s-.07-.25-.09-.35v-.13c-.23-.87-.51-2.58-.06-3a5.33 5.33 0 0 1 3.62-.6h.21a6.91 6.91 0 0 1 .91.15l.35.08c.31.08.61.17.89.27l.27.11.29.13h.06l.11.06a1.7 1.7 0 0 1 .6.45 3.75 3.75 0 0 1 0 2.69Zm11.51-.37a3.56 3.56 0 0 1-1.79 2.78 3.48 3.48 0 0 1-1.47.31 3.36 3.36 0 0 1-3-1.3l-.06-.08-.06-.1-.08-.13-.08-.16a.59.59 0 0 0 0-.08v-.11a.08.08 0 0 0 0-.05 4.64 4.64 0 0 1-.2-.65 4 4 0 0 1 0-2.63 5.43 5.43 0 0 1 3.21-1.29 7.28 7.28 0 0 1 .9-.06h1.05l.46.08h.42l.22.08a1.81 1.81 0 0 1 .49.29c.37.51.17 2.23-.01 3.1Z" style="fill:#37474f"/><path d="m221.6 319.09-4.6 1.72-.72-5.72c.2-.84.4-1.71 1.15-1.74Z" style="fill:#f28f8f"/><path d="m206.54 311.19-7.09 3a6.2 6.2 0 0 1 1 .89l6.16-2.43Z" style="fill:#37474f"/><path d="M216.12 331.22c-4.16-.33-9.67-2-11.05-4.73.71 2.88 3.57 4.48 5.88 5.22a24.64 24.64 0 0 0 5.05 1.09Z" style="fill:#f28f8f"/><circle cx="212.66" cy="314.95" r="1.23" style="fill:#263238"/><circle cx="222.83" cy="314.95" r="1.23" style="fill:#263238"/></svg>