<svg xmlns="http://www.w3.org/2000/svg" viewBox="0 0 500 500"><path style="fill:#ebebeb" d="M0 382.4h500v.25H0zM394.67 398.49h55.23v.25h-55.23zM321.81 393.25h8.69v.25h-8.69zM372.47 389.21h19.19v.25h-19.19zM52.46 390.89h43.19v.25H52.46zM215.33 397.35h45.72v.25h-45.72zM140.46 393.12h93.68v.25h-93.68zM43.91 337.8H237a5.71 5.71 0 0 0 5.71-5.71V60.66A5.71 5.71 0 0 0 237 55H43.91a5.71 5.71 0 0 0-5.7 5.71v271.38a5.71 5.71 0 0 0 5.7 5.71ZM38.46 60.66a5.46 5.46 0 0 1 5.45-5.46H237a5.47 5.47 0 0 1 5.46 5.46v271.43a5.47 5.47 0 0 1-5.46 5.46H43.91a5.46 5.46 0 0 1-5.45-5.46ZM260.21 337.8h193.1a5.71 5.71 0 0 0 5.71-5.71V60.66a5.71 5.71 0 0 0-5.71-5.66h-193.1a5.72 5.72 0 0 0-5.71 5.71v271.38a5.72 5.72 0 0 0 5.71 5.71Zm-5.46-277.14a5.47 5.47 0 0 1 5.46-5.46h193.1a5.47 5.47 0 0 1 5.46 5.46v271.43a5.47 5.47 0 0 1-5.46 5.46h-193.1a5.47 5.47 0 0 1-5.46-5.46Z"/><path style="fill:#f5f5f5" d="M196.92 68.46H425.2V199.7H196.92z"/><path style="fill:#fafafa" d="M314.4 78.23h104.07v113.46H314.4z"/><path style="fill:#f0f0f0" d="M404.37 86.17h-17.98l-8.99 15.57 8.99 15.57h17.98l8.99-15.57-8.99-15.57z"/><path style="fill:#fff" d="M377.4 132.87h-17.97l-8.99 15.57 8.99 15.57h17.97l8.99-15.57-8.99-15.57z"/><path style="fill:#ebebeb" d="M377.4 101.74h-17.97l-8.99 15.57 8.99 15.56h17.97l8.99-15.56-8.99-15.57z"/><path style="fill:#fafafa" d="M210.87 169.97h85v19.54h-85z"/><path d="M246.61 93.76a7.2 7.2 0 1 1-5.82-8.36 7.21 7.21 0 0 1 5.82 8.36ZM233.86 135.65a7.2 7.2 0 1 1-5.82-8.36 7.2 7.2 0 0 1 5.82 8.36Z" style="fill:#ebebeb"/><circle cx="271.31" cy="152.86" r="7.2" transform="rotate(-1.37 270.88 152.556)" style="fill:#ebebeb"/><circle cx="281.72" cy="109.08" r="7.2" transform="rotate(-57.88 281.729 109.082)" style="fill:#ebebeb"/><path d="M298.66 107a3 3 0 1 1-2.46-3.52 3.05 3.05 0 0 1 2.46 3.52Z" style="fill:#ebebeb"/><path d="M281.72 110.27a1.19 1.19 0 0 1-.22-2.36l13.95-2.6a1.19 1.19 0 1 1 .44 2.34l-13.95 2.6a.82.82 0 0 1-.22.02ZM220.39 114.49a3 3 0 1 1-3.25 2.81 3 3 0 0 1 3.25-2.81Z" style="fill:#ebebeb"/><path d="M226.77 135.57a1.21 1.21 0 0 1-1.11-.76l-6.6-16.81a1.19 1.19 0 0 1 2.22-.87l6.6 16.86a1.2 1.2 0 0 1-.68 1.55 1.31 1.31 0 0 1-.43.03ZM269.73 124.77a7.84 7.84 0 1 1-6.33-9.1 7.84 7.84 0 0 1 6.33 9.1Z" style="fill:#ebebeb"/><path d="M226.77 135.57a1.18 1.18 0 0 1-1.13-.84 1.19 1.19 0 0 1 .78-1.49l33.66-10.49-21.52-29.56a1.19 1.19 0 1 1 1.92-1.4l22.5 30.9a1.2 1.2 0 0 1 .17 1.07 1.18 1.18 0 0 1-.78.76l-35.25 11a1 1 0 0 1-.35.05Z" style="fill:#ebebeb"/><path d="M271.31 154a1.18 1.18 0 0 1-1.13-.83l-9.3-29.47a1.2 1.2 0 0 1 .44-1.32l19.7-14.3a1.19 1.19 0 0 1 1.4 1.92l-19 13.81 9 28.65a1.2 1.2 0 0 1-.78 1.49 1.12 1.12 0 0 1-.33.05Z" style="fill:#ebebeb"/><path transform="rotate(180 426.705 134.075)" style="fill:#e6e6e6" d="M425.2 68.46h3V199.7h-3z"/><path d="M135.6 307.67H63.36a9.21 9.21 0 0 0-9.17 8.33l-6.29 66.4h103.16l-6.29-66.4a9.21 9.21 0 0 0-9.17-8.33Z" style="fill:#ebebeb"/><path style="fill:#f5f5f5" d="M63.23 101.74h72.49v205.93H63.23z"/><rect x="59.51" y="92.49" width="79.93" height="9.25" rx="2.89" style="fill:#ebebeb"/><path d="M99.48 62.35a32.86 32.86 0 0 0-32.86 32.86h65.71a32.86 32.86 0 0 0-32.85-32.86Z" style="fill:#ebebeb"/><circle cx="90.67" cy="261" r="11" style="fill:#fafafa"/><circle cx="106.82" cy="229.01" r="6.16" style="fill:#fafafa"/><circle cx="108.89" cy="130.97" r="11" style="fill:#fafafa"/><path d="M83.07 196.56a6.16 6.16 0 1 1-6.16 6.16 6.16 6.16 0 0 1 6.16-6.16Z" style="fill:#fafafa"/><circle cx="101.67" cy="172.05" r="4" style="fill:#fafafa"/><path transform="rotate(90 224.02 310.92)" style="fill:#f0f0f0" d="M152.55 272.61H295.5v76.63H152.55z"/><path transform="rotate(90 224.025 264.575)" style="fill:#f5f5f5" d="M203.07 237.95h41.9v53.25h-41.9z"/><path transform="rotate(90 224.025 310.235)" style="fill:#f5f5f5" d="M203.07 283.61h41.9v53.25h-41.9z"/><path transform="rotate(90 224.02 355.9)" style="fill:#f5f5f5" d="M203.07 329.27h41.9v53.25h-41.9z"/><path d="M232.22 243.07h-16.4a4.34 4.34 0 0 0 4.35 4.34h7.71a4.34 4.34 0 0 0 4.34-4.34ZM232.22 288.73h-16.4a4.35 4.35 0 0 0 4.35 4.35h7.71a4.34 4.34 0 0 0 4.34-4.35ZM232.22 334.39h-16.4a4.35 4.35 0 0 0 4.35 4.35h7.71a4.34 4.34 0 0 0 4.34-4.35Z" style="fill:#e6e6e6"/><path transform="rotate(90 273.06 310.92)" style="fill:#e6e6e6" d="M201.58 300.2h142.95v21.44H201.58z"/><path transform="rotate(90 339.99 310.92)" style="fill:#f0f0f0" d="M268.51 238.21h142.95v145.43H268.51z"/><path d="M388.59 225.6v-7.3a.41.41 0 0 0 .3-.38.4.4 0 0 0-.4-.4h-3.85a.4.4 0 0 0-.11.78v7.3a7.07 7.07 0 1 0 4.06 0Z" style="fill:#f0f0f0"/><path d="M378.08 227.91V225a.33.33 0 0 0-.09-.65h-3.21a.33.33 0 0 0-.33.33.32.32 0 0 0 .24.32v2.92a5.9 5.9 0 1 0 3.39 0ZM405.67 227v-13.88a.46.46 0 0 0 .36-.45.49.49 0 0 0-.48-.48H401a.48.48 0 0 0-.48.48.46.46 0 0 0 .35.45V227a7.71 7.71 0 0 1-2.94 5.92 8.44 8.44 0 0 0-2.43 3.28 2.36 2.36 0 0 0 2.22 3.23h11.15a2.37 2.37 0 0 0 2.23-3.23 8.47 8.47 0 0 0-2.44-3.28 7.74 7.74 0 0 1-2.99-5.92Z" style="fill:#f0f0f0"/><path transform="rotate(90 339.99 264.57)" style="fill:#f5f5f5" d="M319.04 203.55h41.9V325.6h-41.9z"/><path transform="rotate(90 339.99 310.24)" style="fill:#f5f5f5" d="M319.04 249.21h41.9v122.05h-41.9z"/><path transform="rotate(90 339.99 355.9)" style="fill:#f5f5f5" d="M319.04 294.87h41.9v122.05h-41.9z"/><path d="M348.19 243.07h-16.4a4.34 4.34 0 0 0 4.35 4.34h7.71a4.34 4.34 0 0 0 4.34-4.34ZM348.19 288.73h-16.4a4.35 4.35 0 0 0 4.35 4.35h7.71a4.34 4.34 0 0 0 4.34-4.35ZM348.19 334.39h-16.4a4.35 4.35 0 0 0 4.35 4.35h7.71a4.34 4.34 0 0 0 4.34-4.35Z" style="fill:#e6e6e6"/><path transform="rotate(90 423.42 310.92)" style="fill:#e6e6e6" d="M351.95 300.2H494.9v21.44H351.95z"/><ellipse cx="250" cy="416.24" rx="193.89" ry="11.32" style="fill:#f5f5f5"/><path d="M306.5 111.78c-5.43-2.61-18.54 1.55-15.65 11.78 2.45 8.69-4.56 13.5 1.39 18.44s-5.32 16.17 19.49 15.17c20.5-.84 28.17-9.09 26.75-16.13-1.78-8.86-9.42-6.25-8.84-12.2s-23.14-17.06-23.14-17.06Z" style="fill:#263238"/><path d="M306.27 174c-.29.8-.51 1.38-.78 2.06s-.53 1.28-.81 1.91c-.54 1.27-1.15 2.51-1.76 3.74a71.41 71.41 0 0 1-4.18 7.25 53.18 53.18 0 0 1-5.34 6.92 34.77 34.77 0 0 1-3.37 3.25c-.61.52-1.28 1-1.95 1.51l-1.07.72-.7.43c-.26.16-.52.29-.78.43a16.27 16.27 0 0 1-5.91 1.61 25.2 25.2 0 0 1-5-.08 42.3 42.3 0 0 1-8.55-2 68 68 0 0 1-14.66-7.18l3.09-6.57a130.51 130.51 0 0 0 14.19 3.12 37.41 37.41 0 0 0 6.57.46 12.3 12.3 0 0 0 2.64-.32 3.51 3.51 0 0 0 1.4-.61s0 0 0-.06l.1-.09.48-.42c.32-.31.65-.61 1-1 .65-.69 1.3-1.46 1.94-2.28a54.91 54.91 0 0 0 3.63-5.52c1.13-2 2.23-4.05 3.25-6.17.52-1 1-2.13 1.5-3.2l.72-1.6.65-1.5Z" style="fill:#ff8a00"/><path d="M306.27 174c-.29.8-.51 1.38-.78 2.06s-.53 1.28-.81 1.91c-.54 1.27-1.15 2.51-1.76 3.74a71.41 71.41 0 0 1-4.18 7.25 53.18 53.18 0 0 1-5.34 6.92 34.77 34.77 0 0 1-3.37 3.25c-.61.52-1.28 1-1.95 1.51l-1.07.72-.7.43c-.26.16-.52.29-.78.43a16.27 16.27 0 0 1-5.91 1.61 25.2 25.2 0 0 1-5-.08 42.3 42.3 0 0 1-8.55-2 68 68 0 0 1-14.66-7.18l3.09-6.57a130.51 130.51 0 0 0 14.19 3.12 37.41 37.41 0 0 0 6.57.46 12.3 12.3 0 0 0 2.64-.32 3.51 3.51 0 0 0 1.4-.61s0 0 0-.06l.1-.09.48-.42c.32-.31.65-.61 1-1 .65-.69 1.3-1.46 1.94-2.28a54.91 54.91 0 0 0 3.63-5.52c1.13-2 2.23-4.05 3.25-6.17.52-1 1-2.13 1.5-3.2l.72-1.6.65-1.5Z" style="fill:#fff;opacity:.8"/><path d="m254.22 193.61-5.83.74v-7.85s5.78.67 8.21 3.57Z" style="fill:#ffb573"/><path style="fill:#ffb573" d="m241.24 193.88.8-5.37 6.37-2.01-.02 7.85-7.15-.47z"/><path d="M249.72 195.52v-10a.54.54 0 0 0-.15-1.07h-5.28a.54.54 0 0 0-.14 1.07v10a9.69 9.69 0 1 0 5.57 0Z" style="fill:#ff8a00;opacity:.2"/><path d="M255.57 206.31a8.71 8.71 0 0 1-17.29.05c5.77 2.02 11.54-2.07 17.29-.05Z" style="fill:#ff8a00;opacity:.5"/><path d="M238.28 206.31a8.71 8.71 0 0 0 17.29.05c-5.76 2.02-11.57-2.07-17.29-.05Z" style="fill:#ff8a00;opacity:.7000000000000001"/><path style="fill:#ffb573" d="m330.18 404.18-9.28.88-.69-21.26 9.29-.87.68 21.25zM382.42 392.88l-8.51 3.73-7.6-19.92 8.51-3.74 7.6 19.93z"/><path d="m372.69 395 8.38-6.23a.71.71 0 0 1 1 .07l5.66 6a1.52 1.52 0 0 1-.26 2.23c-2.95 2.12-4.48 3-8.17 5.73-2.27 1.69-7.05 5.75-10.18 8.08s-5.49-.67-4.39-1.92c5-5.61 6.28-9.41 7.08-12.54a2.44 2.44 0 0 1 .88-1.42ZM320.13 402.3h11a.88.88 0 0 1 .85.66l2.14 8.68a1.41 1.41 0 0 1-1.39 1.74c-3.86 0-5.7-.28-10.52-.28-3 0-10.64.29-14.74.29s-4.73-4.05-3.06-4.42c7.48-1.64 11.83-3.91 14.18-6.07a2.33 2.33 0 0 1 1.54-.6Z" style="fill:#263238"/><path style="opacity:.2" d="m320.21 383.81.35 10.95h9.32l-.38-11.83-9.29.88zM374.82 372.96l-8.51 3.73 3.92 10.27 8.51-3.73-3.92-10.27z"/><path d="m345.34 208.71-36.42 9.23c-8.91-22.17-13.22-35.11-15.25-42.65a12.12 12.12 0 0 1 7-14.31c1.18-.5 2.42-1 3.67-1.49.92-.36 1.86-.71 2.78-1a120.91 120.91 0 0 1 16.54-4.2c.82-.17 1.65-.32 2.47-.46h.21a12.12 12.12 0 0 1 14.06 11.1c.92 12.81 2.62 32.43 5 43.85" style="fill:#ff8a00"/><path d="M318.52 143.51c.77 4.55 2.28 9.11 5.11 10.75 0 0 .73 3.8-8.44 11.84a4 4 0 0 1-5.32 0c-5.29-4.87-2.78-7.63-2.78-7.63 5.62-2.93 4.85-6.91 1.77-13.11l4.31-3a3 3 0 0 1 5.35 1.15Z" style="fill:#ffb573"/><path d="M313.18 142.32a3 3 0 0 1 5.24.78 19.35 19.35 0 0 1-7.18 9.17 19.86 19.86 0 0 0-2.38-6.93Z" style="opacity:.2"/><path d="M319.4 124.73c1.89 9.06 2.89 12.85-.26 18.74-4.74 8.85-16 9.39-20.54 1.12-4.06-7.44-6.48-21 1.07-27.11s17.83-1.82 19.73 7.25Z" style="fill:#ffb573"/><path d="M297.74 140.36a3.52 3.52 0 0 1-2.41-1.24 10.76 10.76 0 0 1-2.52-8.66 2.64 2.64 0 0 1 4.9-1.43 9.9 9.9 0 0 1 2.22 4.06 9.86 9.86 0 0 1 .3 4.61 3.08 3.08 0 0 1-1.91 2.58 2.2 2.2 0 0 1-.58.08Zm-2.44-12.08a1.68 1.68 0 0 0-.45.06 2.65 2.65 0 0 0-1.56 2.22 10.29 10.29 0 0 0 2.39 8.22 2.17 2.17 0 0 0 4.07-1.18 9.42 9.42 0 0 0-.29-4.38 9.48 9.48 0 0 0-2.1-3.85 3.07 3.07 0 0 0-2.06-1.09Z" style="fill:#fff"/><path d="M316.18 125.72c-1.61 1.34.65 9.75 4.91 8.4s.37-12.79-4.91-8.4Z" style="fill:#263238"/><path transform="rotate(-6.95 314.843 129.694)" style="fill:#fff" d="M309.27 129.41h10.88v.5h-10.88z"/><path d="M306 138a4.52 4.52 0 0 1-2.82-1.13 8.56 8.56 0 0 1-2.6-4.18c-1-3.57.12-7.06 2.58-7.78s5.32 1.61 6.36 5.18c1 3.58-.12 7.07-2.59 7.78a3.22 3.22 0 0 1-.93.13Zm-1.91-12.72a3.07 3.07 0 0 0-.79.11c-2.19.64-3.2 3.85-2.24 7.16a8 8 0 0 0 2.44 3.93 3.59 3.59 0 0 0 3.29.91c2.2-.64 3.21-3.85 2.25-7.16-.87-2.96-2.97-4.99-4.97-4.99Z" style="fill:#fff"/><path d="M323.63 132.42a6.93 6.93 0 0 1-1.79 4.87c-1.61 1.74-3.59.59-4.13-1.6-.49-2-.24-5.23 1.85-6.16s3.99.69 4.07 2.89Z" style="fill:#ffb573"/><path d="M306.5 110.67c-11.76 5.06-8.92 13 2.9 15.67 6.56 1.46 13.47 5 13.76 8.81s11.6-9.07 4.85-12.59-6.76-18.24-21.51-11.89Z" style="fill:#263238"/><path d="M301.08 116.17c.41 4.42-6.75 16.11-15.16 9.29 4.63.19 5.27-2.89 7.2-7.71 1.78-4.42 7.48-6.75 7.96-1.58ZM308.92 217.94s.22 47.07.14 83.23c-.06 28.75 8.41 89.3 8.41 89.3l13.45-1.34s0-65.2-2.58-85.72c8.39-40.44 21.72-78.93 9.83-93.09Z" style="fill:#263238"/><path style="fill:#ff8a00" d="m333.11 385.85-17.73.54.97 6.06 16.59-.25.17-6.35z"/><path d="m327.75 244.66 14.75-9.39c-1.36 14.34-6.06 32.5-10.55 51.87-4.95-14.96-7.67-30.7-4.2-42.48Z" style="opacity:.30000000000000004"/><path d="M316.9 216s14.69 44.36 21.61 79.19a231.15 231.15 0 0 0 6.95 26.67c9 27.69 20.76 60.84 20.76 60.84l11.56-5.43s-9.49-56.74-17.48-76c-.31-40.46.37-79.19-15-92.58Z" style="fill:#263238"/><path d="M324.44 153.94s-1.77 43.2 10.68 98.62c16-1.73 25.65-6.65 25.65-6.65s-9-36.47-12-51.13c-2.22-10.76-5.19-27.94-6.61-36.33a6.76 6.76 0 0 0-6.08-5.58c-3.08-.26-7.33.33-11.64 1.07Z" style="fill:#ff8a00"/><path d="M324.44 153.94s-1.77 43.2 10.68 98.62c16-1.73 25.65-6.65 25.65-6.65s-9-36.47-12-51.13c-2.22-10.76-5.19-27.94-6.61-36.33a6.76 6.76 0 0 0-6.08-5.58c-3.08-.26-7.33.33-11.64 1.07Z" style="fill:#fff;opacity:.8"/><path d="M306.93 157.9s-1.12 20.49 15.68 96.32c-5.05 3-16.19 2.6-16.19 2.6s-4.22-33.49-7.6-49.88c-2.6-12.56-5.35-29.08-6.5-36.12a6.76 6.76 0 0 1 2.19-6.13c2.77-2.48 7.37-5.9 12.42-6.79Z" style="fill:#ff8a00"/><path d="M306.93 157.9s-1.12 20.49 15.68 96.32c-5.05 3-16.19 2.6-16.19 2.6s-4.22-33.49-7.6-49.88c-2.6-12.56-5.35-29.08-6.5-36.12a6.76 6.76 0 0 1 2.19-6.13c2.77-2.48 7.37-5.9 12.42-6.79Z" style="fill:#fff;opacity:.8"/><path d="M326.89 187c-9.91 4.16-19.35 8-26 9.85a1.89 1.89 0 0 0-1.18 2.57l16.29 33.9a2.32 2.32 0 0 0 2.9 1c9.3-4 22.91-8.5 25.64-11.82-7.46-13.6-14.42-26.63-17.65-35.5Z" style="fill:#fff"/><path d="M328.85 187.82c-10.19 3.42-19.88 6.54-26.68 7.92a1.88 1.88 0 0 0-1.36 2.47l13.83 35a2.32 2.32 0 0 0 2.82 1.23c9.57-3.33 23.47-6.81 26.43-9.92-6.48-14.1-12.46-27.61-15.04-36.7Z" style="fill:#fff"/><path d="M342.18 227.57 317 235.7a2.37 2.37 0 0 1-2.89-1.15l-14.95-34.64a1.89 1.89 0 0 1 1.32-2.51l25.14-8.13a2.37 2.37 0 0 1 2.89 1.15l14.95 34.64a1.88 1.88 0 0 1-1.28 2.51Z" style="fill:#ff8a00"/><path d="M342.18 227.57 317 235.7a2.37 2.37 0 0 1-2.89-1.15l-14.95-34.64a1.89 1.89 0 0 1 1.32-2.51l25.14-8.13a2.37 2.37 0 0 1 2.89 1.15l14.95 34.64a1.88 1.88 0 0 1-1.28 2.51Z" style="opacity:.30000000000000004"/><path style="fill:#ff8a00" d="m365.77 385.82 14.79-6.28-1.5-6.23-16.4 7.54 3.11 4.97z"/><path d="M305.52 131.81c.2.72 0 1.42-.48 1.56s-1-.34-1.2-1.06 0-1.43.48-1.56 1 .33 1.2 1.06ZM297.5 134.2c.2.72 0 1.42-.48 1.56s-1-.33-1.2-1.06 0-1.42.48-1.56 1 .33 1.2 1.06Z" style="fill:#263238"/><path d="M296.52 133.12h-1.84s1.25 1.1 1.84 0Z" style="fill:#263238"/><path d="M300.47 134.45a22.94 22.94 0 0 1-1 6.05 3.46 3.46 0 0 0 2.92-.51Z" style="fill:#ed893e"/><path d="M305.9 141.4a.21.21 0 0 1-.18-.16.23.23 0 0 1 .15-.28 6 6 0 0 0 4-3.61.22.22 0 0 1 .27-.15.23.23 0 0 1 .14.28 6.38 6.38 0 0 1-4.26 3.91ZM307.3 128.07a.34.34 0 0 1-.21-.08 3.37 3.37 0 0 0-3-.63.43.43 0 0 1-.56-.26.45.45 0 0 1 .27-.57 4.17 4.17 0 0 1 3.87.75.45.45 0 0 1 .08.62.43.43 0 0 1-.45.17ZM293.3 131.27l-.06-.06a.44.44 0 0 1 0-.62 4.24 4.24 0 0 1 3.77-1.24.46.46 0 0 1 .32.54.45.45 0 0 1-.52.33 3.38 3.38 0 0 0-3 1 .43.43 0 0 1-.51.05Z" style="fill:#263238"/><path d="M369.51 398.84h-.15a1.21 1.21 0 0 1-1-.73.8.8 0 0 1 0-.76c.59-1 3.9-1.25 4.27-1.27a.2.2 0 0 1 .2.12.21.21 0 0 1 0 .24c-.76.9-2.19 2.38-3.32 2.4Zm2.65-2.29c-1.32.13-3.07.46-3.38 1a.32.32 0 0 0 0 .33.78.78 0 0 0 .63.5c.59.08 1.64-.6 2.75-1.83Z" style="fill:#ff8a00"/><path d="M372.46 396.53c-1.11 0-3.29-.58-3.68-1.48a.78.78 0 0 1 .24-.94 1.12 1.12 0 0 1 .92-.32c1.32.12 2.85 2.28 2.92 2.37a.22.22 0 0 1-.16.35Zm-2.66-2.3a.7.7 0 0 0-.49.2c-.2.2-.18.33-.14.43.26.59 2 1.18 3.08 1.22-.55-.69-1.57-1.78-2.36-1.85ZM315.22 404.11a3.58 3.58 0 0 1-2.13-.52 1.33 1.33 0 0 1-.53-1 .66.66 0 0 1 .3-.6c1-.67 4.7 1 5.42 1.37a.2.2 0 0 1 .12.23.24.24 0 0 1-.17.19 15.33 15.33 0 0 1-3.01.33Zm-1.7-1.9a.76.76 0 0 0-.43.1.2.2 0 0 0-.09.2.91.91 0 0 0 .36.73c.63.49 2.15.56 4.12.19a13.49 13.49 0 0 0-3.96-1.22Z" style="fill:#ff8a00"/><path d="M318.18 403.73a.11.11 0 0 1-.08 0c-1.23-.5-3.67-2.5-3.5-3.54 0-.22.2-.51.77-.58 2.19-.25 3 3.7 3 3.87a.21.21 0 0 1-.08.22.24.24 0 0 1-.11.03Zm-2.62-3.73h-.15c-.23 0-.36.09-.37.2-.1.6 1.58 2.18 2.82 2.87-.26-.92-.99-3.07-2.3-3.07Z" style="fill:#ff8a00"/><path d="M304.53 130.72h-1.84s1.25 1.11 1.84 0Z" style="fill:#263238"/><path d="M339.85 154.52c2.61 2.17 5 4.34 7.35 6.62s4.69 4.62 6.93 7.09a92.16 92.16 0 0 1 6.53 7.89 44.06 44.06 0 0 1 3.06 4.68 26.9 26.9 0 0 1 1.41 2.89 16.13 16.13 0 0 1 1.13 4.07l.14 1.06-.14.8a15.73 15.73 0 0 1-2.1 5.47 22.13 22.13 0 0 1-3.06 3.91 33 33 0 0 1-6.74 5.14 51.43 51.43 0 0 1-7 3.42 52.53 52.53 0 0 1-7.32 2.34l-2.7-6.72c1.79-1.22 3.74-2.53 5.52-3.86a62.85 62.85 0 0 0 5.09-4.11 27.31 27.31 0 0 0 3.94-4.27 5.53 5.53 0 0 0 1.3-3.15v1.86c0 .16-.08-.1-.29-.47s-.49-.83-.83-1.32c-.68-1-1.5-2.07-2.41-3.14-1.83-2.15-3.89-4.33-6-6.48s-4.34-4.27-6.59-6.38-4.56-4.23-6.75-6.24Z" style="fill:#ff8a00"/><path d="M339.85 154.52c2.61 2.17 5 4.34 7.35 6.62s4.69 4.62 6.93 7.09a92.16 92.16 0 0 1 6.53 7.89 44.06 44.06 0 0 1 3.06 4.68 26.9 26.9 0 0 1 1.41 2.89 16.13 16.13 0 0 1 1.13 4.07l.14 1.06-.14.8a15.73 15.73 0 0 1-2.1 5.47 22.13 22.13 0 0 1-3.06 3.91 33 33 0 0 1-6.74 5.14 51.43 51.43 0 0 1-7 3.42 52.53 52.53 0 0 1-7.32 2.34l-2.7-6.72c1.79-1.22 3.74-2.53 5.52-3.86a62.85 62.85 0 0 0 5.09-4.11 27.31 27.31 0 0 0 3.94-4.27 5.53 5.53 0 0 0 1.3-3.15v1.86c0 .16-.08-.1-.29-.47s-.49-.83-.83-1.32c-.68-1-1.5-2.07-2.41-3.14-1.83-2.15-3.89-4.33-6-6.48s-4.34-4.27-6.59-6.38-4.56-4.23-6.75-6.24Z" style="fill:#fff;opacity:.8"/><path d="m340.7 208.28-3.88 3.26-2.33-7.47A9.32 9.32 0 0 1 341 204Z" style="fill:#ffb573"/><path d="M324.25 153.83s-1.76 20.88 1 30.51c.9-9.18 3.69-18.06 3.47-20.93a21.63 21.63 0 0 1-2.76-1.55 16.82 16.82 0 0 1 3.24-2.32c0-1.31 0-6.1-.22-6.49-2.55.35-4.73.78-4.73.78ZM307.09 157.74s.82 16.51 2.83 30.43c-3.23-8-7.28-15.59-7.09-18.66 1.42-1.31 2.66-2.74 2.66-2.74a9.47 9.47 0 0 0-3.13-1.08 60.9 60.9 0 0 1 .19-6.83c2.45-.68 4.54-1.12 4.54-1.12Z" style="fill:#ff8a00;opacity:.7000000000000001"/><path style="fill:#ffb573" d="m333.74 213.35-3.09-5.19 3.84-4.09 2.33 7.47-3.08 1.81z"/><g style="opacity:.2"><path d="M157.81 210.78v21.36a2.79 2.79 0 0 0 5.57 0v-21.36Z" style="fill:#ff8a00"/><path d="M163.24 211.33H158a.55.55 0 0 1-.55-.55.55.55 0 0 1 .55-.55h5.28a.55.55 0 0 1 .55.55.55.55 0 0 1-.59.55Z" style="fill:#ff8a00"/></g><g style="opacity:.2"><path d="M168.92 210.78v21.36a2.79 2.79 0 0 0 5.57 0v-21.36Z" style="fill:#ff8a00"/><path d="M174.34 211.33h-5.28a.55.55 0 0 1-.55-.55.55.55 0 0 1 .55-.55h5.28a.55.55 0 0 1 .55.55.55.55 0 0 1-.55.55Z" style="fill:#ff8a00"/></g><g style="opacity:.2"><path d="M180 210.78v21.36a2.79 2.79 0 0 0 5.57 0v-21.36Z" style="fill:#ff8a00"/><path d="M185.45 211.33h-5.29a.55.55 0 0 1-.55-.55.55.55 0 0 1 .55-.55h5.29a.55.55 0 0 1 .55.55.55.55 0 0 1-.55.55Z" style="fill:#ff8a00"/></g><path d="M191.76 215.07h-40.12a.58.58 0 0 1-.58-.58.58.58 0 0 1 .58-.58h40.12a.58.58 0 0 1 .58.58.58.58 0 0 1-.58.58Z" style="fill:#ff8a00"/><path transform="rotate(90 155.015 227.625)" style="fill:#ff8a00" d="M140.4 227.04h29.22v1.16H140.4z"/><path transform="rotate(90 188.395 227.625)" style="fill:#ff8a00" d="M173.78 227.04H203v1.16h-29.22z"/><path d="M231.42 197.14h-23.37a.58.58 0 0 1-.58-.58.58.58 0 0 1 .58-.58h23.37a.58.58 0 0 1 .58.58.58.58 0 0 1-.58.58Z" style="fill:#ff8a00"/><rect x="222.93" y="195.46" width="7.99" height="2.21" rx=".46" style="fill:#ff8a00"/><path transform="rotate(90 211.42 218.66)" style="fill:#ff8a00" d="M187.85 218.08H235v1.16h-47.15z"/><path d="M274.12 225.22v-6a.65.65 0 0 0-.17-1.28h-6.31a.67.67 0 0 0-.66.66.65.65 0 0 0 .49.62v6a10.58 10.58 0 0 1-4 8.11 11.54 11.54 0 0 0-3.34 4.49 3.25 3.25 0 0 0 3 4.44h15.29a3.25 3.25 0 0 0 3-4.44 11.54 11.54 0 0 0-3.34-4.49 10.58 10.58 0 0 1-3.96-8.11Z" style="fill:#ff8a00;opacity:.1"/><rect x="220.12" y="234.24" width="13.62" height="7.99" rx="3.18" style="fill:#ff8a00;opacity:.6000000000000001"/><rect x="222.32" y="231.32" width="9.21" height="2.92" rx="1.2" style="fill:#ff8a00;opacity:.8"/><rect x="226.52" y="232.08" width=".83" height="1.41" rx=".25" style="fill:#ff8a00"/><rect x="228" y="232.08" width=".83" height="1.41" rx=".25" style="fill:#ff8a00"/><rect x="229.48" y="232.08" width=".83" height="1.41" rx=".25" style="fill:#ff8a00"/><rect x="230.96" y="232.08" width=".83" height="1.41" rx=".25" style="fill:#ff8a00"/><rect x="225.04" y="232.08" width=".83" height="1.41" rx=".25" style="fill:#ff8a00"/><rect x="223.55" y="232.08" width=".83" height="1.41" rx=".25" style="fill:#ff8a00"/><rect x="222.07" y="232.08" width=".83" height="1.41" rx=".25" style="fill:#ff8a00"/><path d="M226.93 230.77c-1.4.28-1.94-2.9 0-5.71.51 1.04 2.94 5.13 0 5.71Z" style="fill:#ff8a00;opacity:.6000000000000001"/><path d="M227 230.65c-.81.16-1.12-1.67 0-3.29.26.64 1.66 2.96 0 3.29Z" style="fill:#ff8a00;opacity:.6000000000000001"/><path style="fill:#ff8a00" d="M124.58 249.66h199.11v166.57H124.58z"/><path style="fill:#fff;opacity:.7000000000000001" d="M124.58 249.66h199.11v166.57H124.58z"/><path style="fill:#ff8a00;opacity:.2" d="M280.86 249.66h42.83v166.57h-42.83z"/><path d="M270.24 404.88h-135V261h135Zm-134-1h133V262.06H136.25Z" style="fill:#ff8a00;opacity:.30000000000000004"/><path d="M326.74 249.66H121.53a3.72 3.72 0 0 1-3.71-3.71 3.73 3.73 0 0 1 3.71-3.72h205.21a3.74 3.74 0 0 1 3.72 3.72 3.73 3.73 0 0 1-3.72 3.71Z" style="fill:#ff8a00"/><path d="M326.74 249.66h-48.95a3.73 3.73 0 0 1-3.72-3.71 3.74 3.74 0 0 1 3.72-3.72h48.95a3.74 3.74 0 0 1 3.72 3.72 3.73 3.73 0 0 1-3.72 3.71Z" style="opacity:.30000000000000004"/></svg>